<svg id="Layer_1" data-name="Layer 1" xmlns="http://www.w3.org/2000/svg" width="2289.6022" height="40.7807" viewBox="0 0 2289.6022 40.7807"><defs><style>.cls-1{fill:#ff6f5b;}</style></defs><title>antillia-ui</title><path class="cls-1" d="M1165.2985,19.1185c0,.683-.0189,1.3666.0056,2.0486.0226.6288.2384.8565.8458.9039a13.4447,13.4447,0,0,0,1.552.0379c.6713-.0256.9545-.3269.89-.9947-.0746-.7707-.2035-1.5373-.3354-2.3011a17.7094,17.7094,0,0,1-.2638-3.58,4.4859,4.4859,0,0,1,.747-2.3212,2.181,2.181,0,0,1,3.2084-.5776c1.3619,1.0291,1.7264,1.9629,1.3846,3.912a8.0611,8.0611,0,0,1-.4213,1.343,25.1132,25.1132,0,0,0-1.2669,4.18,6.1717,6.1717,0,0,0,.5846,4.1094,6.0982,6.0982,0,0,1,.762,3.1854,1.9128,1.9128,0,0,1-1.4607,1.8479,1.76,1.76,0,0,1-2.0638-.9676,7.34,7.34,0,0,1-.56-2.0925c-.1222-1.0491-.107-2.1139-.1581-3.1716-.0395-.8162-.2826-1.1035-1.0849-1.1977a4.3449,4.3449,0,0,0-1.2548.0057c-.5827.1046-.7631.4845-.556,1.0489a6.0576,6.0576,0,0,0,.38.7547,5.1892,5.1892,0,0,1,.8272,2.9405,2.1538,2.1538,0,0,1-.6277,1.3791,1.3681,1.3681,0,0,1-1.9141.1067,2.7981,2.7981,0,0,1-1.0446-2.0067c-.0763-.6991-.1377-1.4-.2408-2.0958-.101-.6808-.3364-.9481-.7469-.9418a1.42,1.42,0,0,0-1.2753,1.1268,10.7817,10.7817,0,0,0,.0443,1.1274c.029.6095.0955,1.22.0812,1.8284a2.6083,2.6083,0,0,1-2.8105,2.5461,1.6417,1.6417,0,0,1-1.3044-.7379,5.0391,5.0391,0,0,1-.9175-2.8423c-.0141-.9422-.0114-1.8848-.0013-2.8271a8.8453,8.8453,0,0,0-1.643-5.0881,8.6737,8.6737,0,0,1-1.4107-3.2029,5.13,5.13,0,0,1,.1849-2.9179,2.4408,2.4408,0,0,1,2.232-1.5813,1.7569,1.7569,0,0,1,1.6737.9893,3.467,3.467,0,0,1,.47,1.68,14.6133,14.6133,0,0,0,.4387,4.0532c.2533.78.5536,1.5461.8616,2.3068.2646.6534.5627,1.2938.86,1.9336.3386.73.6682.8527,1.41.5463.13-.0538.2548-.1217.38-.1875a1.0558,1.0558,0,0,0,.632-1.4986c-.3021-1.0125-.6539-2.0113-.9217-3.0323a8.9365,8.9365,0,0,1-.2122-1.6707,2.8284,2.8284,0,0,1,.709-1.937,1.7461,1.7461,0,0,1,2.9392.305,5.3376,5.3376,0,0,1,.39,1.3406,6.9982,6.9982,0,0,1,.053,1.1268c.0072.3525.0015.7053.0015,1.0579Z"/><path class="cls-1" d="M1181.45,14.4829c.3845.0581.9526.11,1.5046.2339a7.199,7.199,0,0,0,3.8018-.2276,9.7314,9.7314,0,0,1,2.8078-.4786,2.1365,2.1365,0,0,1,2.004,3.07,2.269,2.269,0,0,1-1.5948,1.2161c-1.1411.2216-2.2948.3845-3.4481.5334-.4724.061-.9612-.0118-1.4364.0364a.8144.8144,0,0,0-.7885.73.8267.8267,0,0,0,.7806.8343,7.3833,7.3833,0,0,0,1.2538-.0185c.5371-.0318,1.0737-.128,1.609-.1174a3.0863,3.0863,0,0,1,1.1291.2372,2.1932,2.1932,0,0,1,1.3263,2.3235,2.0629,2.0629,0,0,1-1.9788,1.5422,11.7306,11.7306,0,0,1-2.1264-.23c-.4994-.08-.98-.2855-1.48-.3511-.7437-.0976-1.153.1918-1.2822.8061a1.2019,1.2019,0,0,0,.744,1.5375,7.0233,7.0233,0,0,0,1.4982.2346c.6237.06,1.2563.0439,1.8757.1287a4.06,4.06,0,0,1,2.1235,1.1033,2.3691,2.3691,0,0,1,.7976,1.4718,1.79,1.79,0,0,1-2.1765,2.1782,5.7984,5.7984,0,0,1-1.4618-.4045,5.9071,5.9071,0,0,0-2.4559-.4193,28.3543,28.3543,0,0,1-3.1312-.1242,3.3616,3.3616,0,0,1-3.124-2.7691,1.6027,1.6027,0,0,1,1.2149-1.9962,9.305,9.305,0,0,1,1.0645-.1449,3.8264,3.8264,0,0,0,.7868-.1637.842.842,0,0,0,.556-.8453.7651.7651,0,0,0-.5545-.7426c-.2274-.0729-.4579-.1362-.6837-.2134a1.4086,1.4086,0,0,1-.3052-2.5891,4.7361,4.7361,0,0,1,1.0773-.4186c.7021-.2231,1.02-.5342,1.05-1.07a1.2421,1.2421,0,0,0-.9839-1.2336c-.4239-.1466-.8684-.2408-1.2792-.4159a1.8009,1.8009,0,0,1-1.1633-1.2709,1.4293,1.4293,0,0,1,.8543-1.75,2.0243,2.0243,0,0,1,.5148-.1561C1180.6668,14.512,1180.9678,14.51,1181.45,14.4829Z"/><path class="cls-1" d="M1207.9355,26.2237c-.1088.7851-.2294,1.7624-.383,2.7344a2.4839,2.4839,0,0,1-1.747,1.993,4.9194,4.9194,0,0,1-3.3469.1166c-1.5588-.5232-3.1134-1.0662-4.6414-1.6722a4.5916,4.5916,0,0,1-2.7347-5.1914,2.2751,2.2751,0,0,1,2.02-1.873c.1779-.0255.3586-.034.5349-.0672a.9244.9244,0,0,0,.9009-.9468c.1108-1.1.2265-2.2015.2808-3.3052a1.1877,1.1877,0,0,0-.7857-1.2813,7.2265,7.2265,0,0,1-.8326-.3341,1.4522,1.4522,0,0,1-.8736-1.4429,1.5245,1.5245,0,0,1,.9656-1.3951,2.8064,2.8064,0,0,1,.7779-.2018,9.16,9.16,0,0,1,3.477.195,3.314,3.314,0,0,1,1.1341.5128,1.3433,1.3433,0,0,1-.1927,2.4018,4.509,4.509,0,0,1-.7446.3078,1.887,1.887,0,0,0-1.359,1.5322,18.3967,18.3967,0,0,0-.26,2.6718c-.0159.9288.4139,1.2471,1.3148,1.0867.4708-.0838.9327-.2172,1.4-.3233.2918-.0663.5866-.1193.8784-.1858,2.7026-.6167,3.85,1.1333,4.1258,3.0348C1207.9124,25.0626,1207.9,25.5464,1207.9355,26.2237Z"/><path class="cls-1" d="M1984.4058,17.6426c-2.1908,0-3.7148.0271-5.2371-.0111-.7991-.02-1.5947-.1613-2.3933-.2332a2.7186,2.7186,0,0,0-.6638.0265c-.8307.132-1.13.7724-.62,1.4488a2.8316,2.8316,0,0,0,1.0241.8063,7.1583,7.1583,0,0,0,2.6471.6368,13.2311,13.2311,0,0,1,4.3875.7948,4.0732,4.0732,0,0,1,2.5293,2.8681c.0641.2409.1212.4841.1963.7215a1.2655,1.2655,0,0,0,.9207.8776c.2934.0812.5932.1389.89.2079a2.3082,2.3082,0,0,1,1.81,1.9479,2.3832,2.3832,0,0,1-.8718,2.5242,4.6184,4.6184,0,0,1-3.6031.93,59.4468,59.4468,0,0,1-6.8337-1.3581,42.2894,42.2894,0,0,0-4.3452-.6156,12.04,12.04,0,0,1-2.194-.3657,2.3374,2.3374,0,0,1-1.7708-2.7277,2.7722,2.7722,0,0,1,2.57-2.3176,7.57,7.57,0,0,1,3.8145.596c.7087.3149,1.4124.6425,2.13.9354a10.4569,10.4569,0,0,0,4.1929.8959c1.6763-.0354,2.2315-.9531,1.5162-2.4754a2.7188,2.7188,0,0,0-1.4329-1.3175,9.21,9.21,0,0,0-3.5631-.699,10.6176,10.6176,0,0,1-3.3264-.6579,3.4589,3.4589,0,0,1-2.3438-2.3938,1.5514,1.5514,0,0,0-1.4532-1.256,6.7877,6.7877,0,0,1-1.5945-.444,3.4338,3.4338,0,0,1-2.04-3.9033,3.8369,3.8369,0,0,1,2.9339-3.1545,10.7071,10.7071,0,0,1,3.9541-.1015,11.483,11.483,0,0,0,6.1956-.7012,16.7374,16.7374,0,0,1,2.2668-.81,6.43,6.43,0,0,1,4.3056.3163,1.47,1.47,0,0,1,.3567.21,4.9293,4.9293,0,0,1,1.9564,4.6011,4.0365,4.0365,0,0,1-2.9253,3.402A8.3127,8.3127,0,0,1,1984.4058,17.6426Z"/><path class="cls-1" d="M2030.8377,20.3408q0-.1665,0-.3329c.0006-1.0283-.1636-1.2612-1.1516-1.51a1.9082,1.9082,0,0,1-1.3588-.8582,2.4126,2.4126,0,0,1,1.8848-3.7,3.8377,3.8377,0,0,1,2.187.3735,6.23,6.23,0,0,0,3.3865.5765,10.2723,10.2723,0,0,1,2.7975.1766,2.7238,2.7238,0,0,1,2.13,3.1819,1.7673,1.7673,0,0,1-.9949,1.3516,4.1873,4.1873,0,0,1-3.2307.21c-.8255-.2359-1.6408-.5074-2.4618-.7595a4.0889,4.0889,0,0,0-.6414-.17c-.5305-.0717-.9119.1026-1.0194.62a3.9313,3.9313,0,0,0-.0314,1.6231,1.3994,1.3994,0,0,0,1.7747,1.0968c.7323-.1387,1.4388-.4111,2.17-.5569a14.4756,14.4756,0,0,1,2.6144-.3822,2.9451,2.9451,0,0,1,3.0006,3.0028,4.5623,4.5623,0,0,1-.5723,2.3074c-.5151.9895-.4517,1.2444.3961,1.9982.74.6576.935,1.2651.6055,1.8813a1.605,1.605,0,0,1-1.8834.6955,7.2077,7.2077,0,0,1-1.8324-.7525,6.5581,6.5581,0,0,0-5.1148-.7811c-.296.0686-.5984.1126-.9.1544a2.1678,2.1678,0,0,1-2.5945-1.6364,2.342,2.342,0,0,1,1.4106-2.845,3.6378,3.6378,0,0,1,2.2085-.14,17.8448,17.8448,0,0,1,3.9556,1.2395c.0737.0377.154.0625.2311.0936.7016.283,1.4128.46,1.9828-.2214a2.3951,2.3951,0,0,0,.56-2.5407,1.4969,1.4969,0,0,0-1.4788-1.0256,14.382,14.382,0,0,0-2.2877.3226c-.7587.1514-1.4951.4191-2.2558.5546a2.7779,2.7779,0,0,1-3.501-2.9154c-.0016-.1108,0-.2216,0-.3324Z"/><path class="cls-1" d="M1999.29,15.6705c.3558.0537.8814.1018,1.392.2164a6.6609,6.6609,0,0,0,3.5176-.2106,9.0028,9.0028,0,0,1,2.5978-.4428,1.9767,1.9767,0,0,1,1.8542,2.8407,2.1,2.1,0,0,1-1.4755,1.1252c-1.0558.205-2.1232.3557-3.19.4935-.437.0564-.8892-.0109-1.3289.0336a.7538.7538,0,0,0-.73.6751.765.765,0,0,0,.7223.772,6.8386,6.8386,0,0,0,1.16-.0171c.497-.03.9934-.1184,1.4887-.1086a2.8556,2.8556,0,0,1,1.0447.2194,2.0293,2.0293,0,0,1,1.2271,2.15,1.9086,1.9086,0,0,1-1.8309,1.4268,10.8457,10.8457,0,0,1-1.9673-.2127c-.4621-.0743-.9069-.2641-1.37-.3248-.6881-.09-1.0668.1775-1.1864.7459a1.1122,1.1122,0,0,0,.6884,1.4225,6.5021,6.5021,0,0,0,1.3862.217c.577.0557,1.1623.0406,1.7354.1191a3.7561,3.7561,0,0,1,1.9647,1.0208,2.1916,2.1916,0,0,1,.738,1.3618,1.6565,1.6565,0,0,1-2.0138,2.0153,5.3683,5.3683,0,0,1-1.3524-.3743,5.4646,5.4646,0,0,0-2.2723-.3879,26.2549,26.2549,0,0,1-2.8971-.115,3.11,3.11,0,0,1-2.89-2.562,1.483,1.483,0,0,1,1.1241-1.8469,8.6061,8.6061,0,0,1,.9849-.1341,3.5461,3.5461,0,0,0,.728-.1515.779.779,0,0,0,.5144-.7821.7079.7079,0,0,0-.5131-.687c-.21-.0675-.4236-.126-.6326-.1974a1.3033,1.3033,0,0,1-.2823-2.3955,4.3832,4.3832,0,0,1,.9967-.3874c.65-.2063.9437-.4942.9715-.99a1.1493,1.1493,0,0,0-.91-1.1414c-.3922-.1356-.8035-.2227-1.1835-.3848a1.6661,1.6661,0,0,1-1.0763-1.1758,1.3225,1.3225,0,0,1,.79-1.6189,1.8709,1.8709,0,0,1,.4764-.1444C1998.5648,15.6974,1998.8433,15.6956,1999.29,15.6705Z"/><path class="cls-1" d="M2050.5408,13.6622c.4017.0606.9951.1149,1.5717.2443a7.5206,7.5206,0,0,0,3.9713-.2377,10.1636,10.1636,0,0,1,2.933-.5,2.2317,2.2317,0,0,1,2.0934,3.2072,2.3708,2.3708,0,0,1-1.6659,1.27c-1.192.2314-2.3971.4016-3.6019.5571-.4935.0637-1.004-.0123-1.5.038a.8509.8509,0,0,0-.8237.7622.8635.8635,0,0,0,.8154.8715,7.72,7.72,0,0,0,1.31-.0192c.5611-.0333,1.1216-.1338,1.6807-.1227a3.2241,3.2241,0,0,1,1.18.2478,2.291,2.291,0,0,1,1.3855,2.4271,2.1549,2.1549,0,0,1-2.0671,1.6109,12.2473,12.2473,0,0,1-2.2212-.24c-.5217-.0839-1.0239-.2982-1.5463-.3668-.7768-.1019-1.2044.2-1.3394.8421a1.2556,1.2556,0,0,0,.7772,1.6061,7.3459,7.3459,0,0,0,1.565.245c.6515.0629,1.3123.0458,1.9594.1345a4.24,4.24,0,0,1,2.2181,1.1524,2.4746,2.4746,0,0,1,.8332,1.5375,1.87,1.87,0,0,1-2.2735,2.2753,6.0592,6.0592,0,0,1-1.527-.4226,6.1687,6.1687,0,0,0-2.5654-.4379,29.68,29.68,0,0,1-3.2709-.13,3.5116,3.5116,0,0,1-3.2633-2.8926,1.6744,1.6744,0,0,1,1.2691-2.0852,9.7608,9.7608,0,0,1,1.112-.1514,4.0053,4.0053,0,0,0,.8219-.1709.8794.8794,0,0,0,.5807-.883.7989.7989,0,0,0-.5792-.7757c-.2375-.0762-.4783-.1423-.7142-.2229a1.4715,1.4715,0,0,1-.3188-2.7046,4.9449,4.9449,0,0,1,1.1254-.4373c.7334-.233,1.0654-.5579,1.0968-1.1181a1.2976,1.2976,0,0,0-1.0278-1.2886c-.4427-.1531-.9071-.2515-1.3362-.4345a1.8809,1.8809,0,0,1-1.2151-1.3275,1.493,1.493,0,0,1,.8923-1.8277,2.1154,2.1154,0,0,1,.5378-.1631C2049.7223,13.6925,2050.0367,13.6906,2050.5408,13.6622Z"/><path class="cls-1" d="M2017.9887,21.7539c-.1942,0-.3884-.0033-.5826.0006-1.0123.02-1.3237.33-1.4347,1.3226a2.7628,2.7628,0,0,0,.8558,2.4063,2.4126,2.4126,0,0,1,.5922.882,1.4862,1.4862,0,0,1-.8492,1.8644,3.1533,3.1533,0,0,1-2.4313.1131,1.2142,1.2142,0,0,1-.7245-1.7494.2964.2964,0,0,1,.035-.0752,4.24,4.24,0,0,0,.7063-3.0728c-.0169-.8.07-1.6017.0984-2.4032a1.6323,1.6323,0,0,0-1.1379-1.7228c-1.9407-.8027-2.3227-1.9-1.346-3.7454a11.85,11.85,0,0,1,.9594-1.4543,2.5934,2.5934,0,0,1,1.5926-.9827,1.9513,1.9513,0,0,1,2.3115,1.1694,3.1839,3.1839,0,0,1,.2411,1.9476c-.088.46-.2351.91-.36,1.3632-.0731.2665-.1768.5265-.227.7968-.2381,1.2823.16,1.7383,1.4567,1.78a13.646,13.646,0,0,1,2.3046.2164,2.6071,2.6071,0,0,1,2.017,1.9991c.0852.2919.145.591.22.886a2.6551,2.6551,0,0,0,1.8414,1.972c.3412.1141.6932.2,1.0265.3329a2.2206,2.2206,0,0,1,1.5865,2.4426,4.4027,4.4027,0,0,1-.6961,2.2731,1.7726,1.7726,0,0,1-1.6611.9164,12.3325,12.3325,0,0,1-1.7029-.3057c-.6188-.1323-1.2256-.3333-1.8492-.4277-1.5482-.2346-2.0148-1.14-1.2631-2.54.1833-.3415.3966-.6669.5944-1.0007a4.8532,4.8532,0,0,0,.42-3.9341,1.7441,1.7441,0,0,0-1.679-1.26,8.134,8.134,0,0,0-.9148-.0055Z"/><path class="cls-1" d="M1488.8555,30.4169c-.4717,0-.9465.0344-1.4147-.0066a1.994,1.994,0,0,1-1.9327-2.24,2.1412,2.1412,0,0,1,.852-1.3781c.8373-.7405.89-.9527.3958-1.917q-1.1573-2.2563-2.3372-4.5008c-.2155-.4077-.4217-.9551-.97-.8983-.4891.0507-.5742.6056-.7787.9955-.4364.832-.9077,1.6459-1.3723,2.4629-.15.2645-.3414.5066-.4854.7743-.4679.87-.3453,1.2931.4969,1.7753.2164.1239.449.2232.653.3645a3.8119,3.8119,0,0,1,1.7568,2.9662,1.9781,1.9781,0,0,1-1.9212,2.2555,24.3943,24.3943,0,0,1-5.7224-.0031,3.88,3.88,0,0,1-3.36-2.6338c-.62-1.7735-.1027-3.8139,2.2967-4.208a7.9021,7.9021,0,0,1,2.6421.0642,1.4735,1.4735,0,0,0,1.6593-.797q.54-.8875,1.1243-1.7478a9.556,9.556,0,0,0,1.3178-2.9459c.2381-.8948-.0321-1.232-.9675-1.2707-.6917-.0286-1.3866-.0318-2.0735-.1065a3.438,3.438,0,0,1-1.1894-.3268,1.4143,1.4143,0,0,1-.3529-2.3112,2.1968,2.1968,0,0,1,1.4809-.67,6.2275,6.2275,0,0,1,.8321-.0032,6.3228,6.3228,0,0,0,2.6862-.4338,5.02,5.02,0,0,1,2.619-.2535,1.8862,1.8862,0,0,1,1.3981,2.5417,2.635,2.635,0,0,1-.6977.7886c-.74.5683-.86.9093-.4529,1.7649.2855.6.6228,1.1754.9306,1.7651q.8466,1.6219,1.6857,3.2478c.14.2706.2647.55.42.8118.6092,1.0229.97,1.1223,2.02.59a3.9342,3.9342,0,0,1,.6862-.2947,1.7151,1.7151,0,0,1,2.2672,1.12,3.3435,3.3435,0,0,1-3.11,4.6662c-.3608.0037-.7216.0005-1.0825.0005Z"/><path class="cls-1" d="M1501.7736,17.7815c0-1.0767-.0069-2.1536.0049-3.23.003-.2735.0774-.5454.0987-.82a.9988.9988,0,0,0-.964-1.2015c-.4116-.054-.8288-.0647-1.2431-.1a3.5621,3.5621,0,0,1-2.5832-1.3305,2.48,2.48,0,0,1-.4991-2.0359,1.4113,1.4113,0,0,1,1.315-1.19,3.5388,3.5388,0,0,1,1.9362.3525c.5484.2623,1.1122.4974,1.6826.7081a9.7941,9.7941,0,0,0,3.03.4267,2.0262,2.0262,0,0,1,1.7442.7827,1.5713,1.5713,0,0,1-.6073,2.4425,5.7646,5.7646,0,0,1-1.2726.348c-.877.1859-1.2861.5657-1.3387,1.4427a11.9761,11.9761,0,0,0,.21,3.6375c.2955,1.188.68,1.5018,1.8928,1.5834a6.2568,6.2568,0,0,1,1.3091.1923,2.0528,2.0528,0,0,1,1.5012,1.6217,1.4164,1.4164,0,0,1-.4553,1.43,1.2949,1.2949,0,0,1-1.4777.2053c-.3005-.1344-.5629-.3516-.8517-.5154a2.7749,2.7749,0,0,0-.6675-.315.5385.5385,0,0,0-.759.5161,2.8282,2.8282,0,0,0,.0135.8289,15.61,15.61,0,0,1,.098,3.8077c-.0111.166-.0214.3323-.0241.4985-.0139.8533.1465,1.0774.9451,1.3284.2108.0663.4264.12.6318.2a.9047.9047,0,0,1-.1013,1.7585,1.9009,1.9009,0,0,1-.8958.047c-1.0208-.2507-2.0326-.5413-3.0393-.8447a.8073.8073,0,0,1-.6446-.6891.7075.7075,0,0,1,.5508-.7429,1.8938,1.8938,0,0,0,1.253-1.9607c.034-1.1048-.0312-2.2128-.0613-3.3192-.006-.22-.0483-.4389-.0717-.6585-.1191-1.12-.6671-1.4876-1.77-1.1826-.267.0738-.526.1814-.796.2383a2.0054,2.0054,0,0,1-1.729-.3658,1.6014,1.6014,0,0,1-.547-1.92,1.5123,1.5123,0,0,1,1.6826-.921c.3563.0421.7081.1265,1.06.1994C1501.469,19.27,1501.8959,18.9269,1501.7736,17.7815Z"/><path class="cls-1" d="M63.9419,27.6965a24.9893,24.9893,0,0,1,.4515-2.5924,16.4158,16.4158,0,0,0,.2907-4.5445c-.0039-.4675-.1074-.9335-.1485-1.4017a9.2251,9.2251,0,0,0-.6989-2.7171,6.9334,6.9334,0,0,1-.4623-4.224A3.7956,3.7956,0,0,1,67.6587,9.381a2.7078,2.7078,0,0,1,1.9028,1.4738,7.218,7.218,0,0,1,.63,2.9761c.03.2752.0173.5571.0687.8275a1.016,1.016,0,0,0,.987.9574,2.5064,2.5064,0,0,0,1.7448-.39c.582-.3957.5319-1.0243.508-1.6515a15.3479,15.3479,0,0,1,.04-2.5568A1.83,1.83,0,0,1,75.342,9.27a4.7972,4.7972,0,0,1,1.1622.0018,2.1736,2.1736,0,0,1,2.0469,2.31,11.3748,11.3748,0,0,1-.22,2.3043c-.0839.4915-.1881.9818.2835,1.2725a1.8536,1.8536,0,0,0,1.6652.2441.8427.8427,0,0,0,.4358-.5418,7.9648,7.9648,0,0,0,.1314-1.4813,5.3093,5.3093,0,0,1,.5494-2.4061,3.2707,3.2707,0,0,1,1.3559-1.4213A2.7723,2.7723,0,0,1,86.8349,11.06a8.3555,8.3555,0,0,1,.2737,4.0253c-.314,2.2435-.7745,4.4666-1.0847,6.7105a19.5673,19.5673,0,0,0-.0917,3.1472c.02.826.1929,1.6473.2367,2.474a3.6318,3.6318,0,0,1-2.2872,3.689,3.8177,3.8177,0,0,1-4.33-1.2415,3.1382,3.1382,0,0,1-.5047-1.46,9.3947,9.3947,0,0,1,.3806-3.78A38.5226,38.5226,0,0,0,80.53,18.7614c.224-1.37-.6031-1.8344-1.5957-1.9166a1.1092,1.1092,0,0,0-1.364,1.1066c-.108.8219-.1284,1.6549-.2216,2.4791a6.6842,6.6842,0,0,1-.2757,1.3738,1.8751,1.8751,0,0,1-1.4885,1.3,1.91,1.91,0,0,1-2.502-1.7234,12.7609,12.7609,0,0,1,.0551-2.0679,8.5209,8.5209,0,0,0,.0892-.9058,1.0914,1.0914,0,0,0-.2347-.682c-.5534-.5227-1.2476-.3486-1.891-.2355-.5041.0887-.68.5042-.7392.9863a10.7839,10.7839,0,0,0,.5536,4.5714,21.3939,21.3939,0,0,1,.9227,5.13,3.73,3.73,0,0,1-3.1909,4.1048,4.8256,4.8256,0,0,1-2.3732.03A2.792,2.792,0,0,1,64.24,30.1136C64.0931,29.386,64.0533,28.6369,63.9419,27.6965Z"/><path class="cls-1" d="M97.7494,12.2109a13.6374,13.6374,0,0,1,1.567.2192,10.4071,10.4071,0,0,0,6.193-.1463,5.858,5.858,0,0,1,3.267-.1127,2.8966,2.8966,0,0,1,1.7818,4.5224,2.18,2.18,0,0,1-.734.6473,5.2048,5.2048,0,0,1-2.9994.6457,21.2381,21.2381,0,0,1-4.31-.6566,4.5919,4.5919,0,0,0-2.3622.0543.8434.8434,0,0,0-.7132.7755,9.2349,9.2349,0,0,0,.02,1.7855c.0874.6863.467.891,1.2118.7073,1.007-.2485,2.0055-.5319,3.0069-.8028.213-.0577.4241-.1228.6341-.19a7.8792,7.8792,0,0,1,4.2469.1085,2.247,2.247,0,0,1,1.4808,2.0154,3.0117,3.0117,0,0,1-3.9425,3.2059,20.16,20.16,0,0,0-4.0314-.7418,9.7252,9.7252,0,0,0-1.5864.0479.8576.8576,0,0,0-.8228.8822,9.3377,9.3377,0,0,0-.0121,1.1273.767.767,0,0,0,.6726.8588,8.9756,8.9756,0,0,0,5.285.0781,3.8949,3.8949,0,0,1,2.4175-.0162,2.61,2.61,0,0,1,1.8661,3.035,2.3045,2.3045,0,0,1-1.6659,1.6565,10.9874,10.9874,0,0,1-1.9414.3934,17.036,17.036,0,0,1-5.5372-.1982,2.3083,2.3083,0,0,1-.3888-.0768c-1.2814-.4792-2.5672-.948-3.8354-1.46a2.4893,2.4893,0,0,1-.85-.6149,1.47,1.47,0,0,1,.23-2.2584,6.425,6.425,0,0,1,1.4458-.6233,1.0318,1.0318,0,0,0,.8354-1.0454.9161.9161,0,0,0-.86-1.0534c-.1511-.0276-.3071-.0283-.4608-.0411a2.0775,2.0775,0,0,1-1.9441-1.6258,2.1,2.1,0,0,1,.8976-2.3714,3.1064,3.1064,0,0,1,.93-.3,3.5162,3.5162,0,0,1,.5292-.0135c.6683-.0509.9007-.2846.9045-.9654a9.098,9.098,0,0,0-.0866-1.1833.9465.9465,0,0,0-.8831-.8472c-.2176-.0377-.4356-.0737-.6528-.1139a2.5094,2.5094,0,0,1-2.0455-2.29,2.5971,2.5971,0,0,1,2.7716-2.962c.1548-.0017.31,0,.4645,0Z"/><path class="cls-1" d="M9.6472,31.62c-1.3961.1168-2.8069.08-4.2.2233a8.758,8.758,0,0,1-3.1952-.3172A2.7589,2.7589,0,0,1,.4554,29.9344a4.8626,4.8626,0,0,1-.3672-3.0135,3.0544,3.0544,0,0,1,3.4485-2.5044,11.31,11.31,0,0,1,1.8007.5045c.5458.1793,1.07.4257,1.6152.6052,1.3874.4561,1.7642.26,2.1926-1.1613.3034-1.0067.5679-2.0251.8473-3.0389q.8981-3.2582,1.794-6.5169c.0332-.12.0778-.2377.1082-.3588a1.6209,1.6209,0,0,0-.4657-1.7135,2.1188,2.1188,0,0,1-.8425-1.6892,1.4989,1.4989,0,0,1,1.1722-1.459,2.272,2.272,0,0,1,1.6889.1535,7.9961,7.9961,0,0,0,3.5926.9571,3.2268,3.2268,0,0,1,.4413.0764,1.34,1.34,0,0,1,1.0714,1.1279,1.36,1.36,0,0,1-.7061,1.4576,8.3631,8.3631,0,0,1-.9525.4446c-.9765.4166-1.1126.6567-.7453,1.67C16.9083,17.57,17.71,19.65,18.4813,21.74c.2944.7975.5989,1.5957.8191,2.4149a2.2951,2.2951,0,0,0,2.132,1.9892,5.1469,5.1469,0,0,1,1.0248.2307,2.7222,2.7222,0,0,1,1.9186,2.9491,3.4444,3.4444,0,0,1-2.9752,3.1307,6.2583,6.2583,0,0,1-3.3878-.3886,3.0221,3.0221,0,0,1-1.8808-2.7649c-.0265-.2481.0059-.5018-.0053-.7522a2.0391,2.0391,0,0,1,1.4053-2.2258c.7217-.2769.8784-.6225.6647-1.3641-.2767-.96-.5742-1.92-.9438-2.8478-.5929-1.4883-1.262-2.9462-1.8784-4.4254-.2114-.5074-.3508-1.0443-.543-1.56a5.8956,5.8956,0,0,0-.4783-1.0954.5947.5947,0,0,0-1.0909-.024,4.4727,4.4727,0,0,0-.5821,1.2122c-.3944,1.3189-.7458,2.6507-1.1069,3.9794-.3546,1.3049-.701,2.612-1.05,3.9183-.0582.2175-.1267.4334-.1663.6544-.1148.6411.0765.9311.7136,1.09.2185.0546.4415.0927.6638.13a1.8864,1.8864,0,0,1,1.43,1.0974,4.1282,4.1282,0,0,1,.373,2.4159,2.2036,2.2036,0,0,1-1.8054,1.8833c-.6846.1309-1.3889.1584-2.0845.232C9.6431,31.5752,9.6514,31.6642,9.6472,31.62Z"/><path class="cls-1" d="M40.0246,17.9516c-.15,1.0791-.28,2.1613-.4535,3.2366a19.8977,19.8977,0,0,0,.13,6.5932,16.3185,16.3185,0,0,1,.2115,2.7357,1.9269,1.9269,0,0,1-1.0262,1.7161,1.632,1.632,0,0,1-2.3923-.9937,11.6677,11.6677,0,0,1-.2671-1.8332c-.0192-.1475-.0067-.2989-.0229-.447-.0646-.5889-.29-.7394-.84-.5672a1.96,1.96,0,0,0-.2806.1008,5.7634,5.7634,0,0,1-4.8973-.1765A4.9494,4.9494,0,0,1,27.49,25.1836a10.89,10.89,0,0,1-.6271-5.1263c.1674-1.4038.2166-2.8217.3126-4.2338a1.8842,1.8842,0,0,0-.0416-.3685c-.14-1.0352-.3408-1.1863-1.3463-1.0507-.3434.0463-.692.0529-1.0381.0793a2.15,2.15,0,0,1-2.0459-3.0481,3.1169,3.1169,0,0,1,2.7843-1.9467c1.402-.1748,2.8191-.2266,4.2285-.3454a1.4913,1.4913,0,0,1,1.558.637,1.7258,1.7258,0,0,1,.0207,1.7743,2.5321,2.5321,0,0,1-1.48,1.3012,2.0279,2.0279,0,0,0-1.4637,2.33c.0343,1.5822-.1594,3.1688-.2439,4.7541a11.8067,11.8067,0,0,0,.4321,4.497,4.3351,4.3351,0,0,0,3.87,3.21,4.5088,4.5088,0,0,0,3.374-1.0739,1.3183,1.3183,0,0,0,.5157-1.0343,3.7774,3.7774,0,0,0-.3492-1.8081c-.3747-.8124-.7253-1.6363-1.114-2.4419a10.3887,10.3887,0,0,1-.8927-5.4541,3.0175,3.0175,0,0,1,3.6831-2.9389,1.9577,1.9577,0,0,1,1.658,1.3275,18.801,18.801,0,0,1,.5878,2.524,8.9848,8.9848,0,0,1,.0764,1.1892Z"/><path class="cls-1" d="M55.9928,35.8287a10.5992,10.5992,0,0,0-.71-3.8179,10.6643,10.6643,0,0,1-.7449-3.8882,1.283,1.283,0,0,0-1.4471-1.4395c-1.024-.0151-2.05.0968-3.0735.0674a9.0991,9.0991,0,0,1-2.1276-.3,4.0194,4.0194,0,0,1-2.8362-3.96,3.8883,3.8883,0,0,1,1.9082-2.97,6.1583,6.1583,0,0,1,5.5346-.9482c1.3593.3788,2.6993.8406,4.02,1.338a3.7361,3.7361,0,0,1,2.338,4.0745,2.8806,2.8806,0,0,1-1.4068,2.0633c-.2116.1315-.4341.2455-.65.3693a1.527,1.527,0,0,0-.8081,1.3585,8.2126,8.2126,0,0,0,.4909,3.4274,13.2709,13.2709,0,0,1,.9046,5.371,3.9314,3.9314,0,0,1-2.9174,3.885,8.1179,8.1179,0,0,1-.8892.209,3.503,3.503,0,0,1-3.852-1.6639c-.851-1.3174-.9774-1.3651-2.5038-.98-.4829.122-.9642.2605-1.4547.34a2.3681,2.3681,0,0,1-2.5546-1.5554,2.3974,2.3974,0,0,1,.91-2.9252,7.5041,7.5041,0,0,1,1.725-.5405,2.48,2.48,0,0,1,.7451-.0462,5.9361,5.9361,0,0,0,3.8808-.9394,2.2572,2.2572,0,0,1,.7042-.2429,2.0282,2.0282,0,0,1,2.4824.8006,2.2975,2.2975,0,0,1-.2559,2.8429,12.0424,12.0424,0,0,1-1.5643,1.2241c-.3955.288-.9373.4607-.8357,1.1046a1.4678,1.4678,0,0,0,1.1041,1.1286A3.0482,3.0482,0,0,0,55.99,36.6612C56.0071,36.3847,55.9928,36.1063,55.9928,35.8287Z"/><path class="cls-1" d="M121.1942,22.3741c0,.36-.0283.7236.0054,1.0809a3.0278,3.0278,0,0,0,1.3988,2.17,2.74,2.74,0,0,1,.8911,3.3484,2.6313,2.6313,0,0,1-2.944,1.6427,2.2194,2.2194,0,0,1-2.0094-2.102,2.2841,2.2841,0,0,1,.4412-1.6528,4.2538,4.2538,0,0,0,.6841-3.0781c-.0646-.9114-.0277-1.83-.0372-2.7452a4.2691,4.2691,0,0,0-.0208-.6644c-.0882-.52-.37-.715-.89-.5737-.4254.1156-.83.3075-1.2463.457a2.9162,2.9162,0,0,1-2.9721-.4861,2.24,2.24,0,0,1-.8219-2.6529,3.1439,3.1439,0,0,1,2.4451-2.1418c.5926-.1409,1.1925-.2516,1.7908-.3677a2.7168,2.7168,0,0,0,1.961-1.3966,7.2294,7.2294,0,0,1,.7566-1.0925,2.1231,2.1231,0,0,1,1.3962-.8248,1.4152,1.4152,0,0,1,1.6506,1.3515,4.7826,4.7826,0,0,1-.8369,2.9058c-.1965.3336-.4452.6361-.6483.9662-.4686.7616-.21,1.3351.6907,1.3547a22.3419,22.3419,0,0,0,2.7327-.1728,3.4894,3.4894,0,0,1,3.8888,2.827,29.9005,29.9005,0,0,1,.3294,3.0477c.041.4961.014.9984.007,1.4978a3.7111,3.7111,0,0,0,1.3587,2.9954c.4616.3983.916.8062,1.3542,1.23a2.8908,2.8908,0,0,1,.5115.6506,1.6084,1.6084,0,0,1-1.2308,2.481,2.3434,2.3434,0,0,1-1.9954-.6417c-.8375-.8071-1.6458-1.649-2.4127-2.5233a2.0448,2.0448,0,0,1-.1754-2.4752,1.19,1.19,0,0,1,.1345-.21c1.0422-1.1444,1.0007-2.5207.84-3.9212-.0662-.5766-.1042-1.1606-.2268-1.7257A1.9,1.9,0,0,0,125.99,19.295c-1.2455.0192-2.491.0994-3.7339.1895a.9733.9733,0,0,0-.9472.9865c-.0784.63-.1132,1.2663-.1671,1.9Z"/><path class="cls-1" d="M140.8808,18.9979c0-1.0767-.007-2.1536.0048-3.23.003-.2735.0775-.5454.0987-.82a.9987.9987,0,0,0-.9639-1.2015c-.4117-.054-.8289-.0647-1.2431-.1a3.5623,3.5623,0,0,1-2.5832-1.3305,2.48,2.48,0,0,1-.4992-2.0359A1.4113,1.4113,0,0,1,137.01,9.09a3.5379,3.5379,0,0,1,1.9362.3525c.5484.2623,1.1121.4973,1.6825.7081a9.7941,9.7941,0,0,0,3.03.4267,2.026,2.026,0,0,1,1.7442.7827,1.5712,1.5712,0,0,1-.6073,2.4425,5.7638,5.7638,0,0,1-1.2725.348c-.8771.1859-1.2862.5657-1.3388,1.4427a11.973,11.973,0,0,0,.21,3.6375c.2954,1.188.68,1.5018,1.8928,1.5834a6.2568,6.2568,0,0,1,1.309.1923,2.0525,2.0525,0,0,1,1.5012,1.6217,1.416,1.416,0,0,1-.4553,1.43,1.2948,1.2948,0,0,1-1.4777.2054c-.3005-.1344-.5629-.3517-.8517-.5154a2.7742,2.7742,0,0,0-.6674-.315.5385.5385,0,0,0-.7591.5161,2.8283,2.8283,0,0,0,.0136.8289,15.61,15.61,0,0,1,.0979,3.8077c-.011.166-.0213.3323-.0241.4985-.0139.8533.1465,1.0774.9451,1.3284.2109.0663.4264.12.6318.2a.9047.9047,0,0,1-.1013,1.7585,1.9008,1.9008,0,0,1-.8958.047c-1.0208-.2508-2.0325-.5413-3.0393-.8447a.8076.8076,0,0,1-.6446-.6891.7075.7075,0,0,1,.5509-.7429,1.8939,1.8939,0,0,0,1.253-1.9607c.034-1.1048-.0312-2.2128-.0614-3.3192-.006-.22-.0483-.4389-.0717-.6586-.119-1.12-.667-1.4875-1.77-1.1825-.267.0738-.526.1814-.7961.2383a2.0055,2.0055,0,0,1-1.729-.3658,1.6013,1.6013,0,0,1-.5469-1.92,1.5122,1.5122,0,0,1,1.6825-.921c.3564.0421.7081.1265,1.06.1994C140.5761,20.4864,141.003,20.1433,140.8808,18.9979Z"/><path class="cls-1" d="M2130.0355,25.0316c0,.7215-.0111,1.4432.0029,2.1644.016.8179.3045,1.1156,1.1055,1.1022.5244-.0087,1.0477-.0852,1.5717-.1283a1.4983,1.4983,0,0,1,1.6768.9348,1.3236,1.3236,0,0,1-.7286,1.7844,1.7741,1.7741,0,0,1-.6407.1607,40.0723,40.0723,0,0,1-6.8083-.09,3.07,3.07,0,0,1-.8806-.23.8668.8668,0,0,1-.0923-1.5877,3.2925,3.2925,0,0,1,1.0957-.3284c.4071-.074.8311-.0541,1.2387-.1263a1.0658,1.0658,0,0,0,.9923-1.0538c.0325-.2461.0145-.4985.0266-.7477.0881-1.8255.1626-3.6519.2736-5.4761.06-.9826-.3071-1.4406-1.3123-1.5-.5805-.0341-1.1659-.0156-1.7425-.08a2.796,2.796,0,0,1-2.82-2.6414,4.1519,4.1519,0,0,1,1.178-4.0408,4.4666,4.4666,0,0,1,2.79-1.1551c1.1067-.06,2.2177-.0925,3.3253-.0692a7.9649,7.9649,0,0,0,3.1717-.5239,7.27,7.27,0,0,1,5.118-.0253,4.6092,4.6092,0,0,1,3.1664,4.3368c.02.22.0055.4437.0053.6657a3.041,3.041,0,0,1-2.7588,3.3592,11.0472,11.0472,0,0,1-1.7332.1621c-.8594.0256-1.72.01-2.58.0019a.8677.8677,0,0,0-.91,1.1007,1.8549,1.8549,0,0,0,1.4018,1.591,11.0616,11.0616,0,0,0,1.6417.2167c.7135.0837,1.4324.1331,2.14.2506a3.4345,3.4345,0,0,1,2.7608,2.4728c.0745.2081.1248.4249.2013.6322a1.2148,1.2148,0,0,0,1.4527.9421c.1382-.0092.2758-.0311.4141-.0358a1.92,1.92,0,0,1,2.0807,1.41,2.0846,2.0846,0,0,1-1.1771,2.3359,4.3776,4.3776,0,0,1-1.5184.3811c-1.4122.0532-2.8282.048-4.2411.0085a2.9172,2.9172,0,0,1-1.1819-.3487,1.9272,1.9272,0,0,1-1.12-1.8145,1.8753,1.8753,0,0,1,1.3686-1.714,4.0664,4.0664,0,0,1,1.1378-.1835c.479-.0336.9837-.0235,1.2081-.544a1.3249,1.3249,0,0,0-.32-1.3131,2.4848,2.4848,0,0,0-1.8631-.9674c-.7966-.0979-1.6013-.1391-2.4039-.1774a3.4818,3.4818,0,0,1-3.373-2.7883,4.9966,4.9966,0,0,0-.2362-.793.8831.8831,0,0,0-.8607-.55.8586.8586,0,0,0-.8459.5681,2.785,2.785,0,0,0-.176.7209c-.103,1.2411-.1873,2.4839-.2782,3.726Z"/><path class="cls-1" d="M2190.9715,18.3755c-.0607,1.1052-.1808,2.2112-.1655,3.3154a28.4363,28.4363,0,0,0,.2674,3.3028,6.3072,6.3072,0,0,1-.765,4.2419,3.9535,3.9535,0,0,1-3.4258,1.9934,5.3736,5.3736,0,0,1-4.0465-1.3892,3.7963,3.7963,0,0,1-1.21-2.476,10.387,10.387,0,0,1,.2662-3.6247,6.6647,6.6647,0,0,0-.61-4.7394,6.6677,6.6677,0,0,1-.78-2.5234,3.8941,3.8941,0,0,1,2.5967-3.9315,6.0437,6.0437,0,0,1,6.8475,2.0591,5.3156,5.3156,0,0,1,1.0056,2.9388c.0229.2755.0034.5546.0034.832Z"/><path class="cls-1" d="M2150.88,15.6705c.3558.0537.8814.1018,1.3921.2164a6.6609,6.6609,0,0,0,3.5176-.2106,9.0028,9.0028,0,0,1,2.5978-.4428,1.9767,1.9767,0,0,1,1.8541,2.8407,2.0992,2.0992,0,0,1-1.4755,1.1252c-1.0557.205-2.1232.3557-3.19.4935-.437.0564-.8892-.0109-1.3289.0336a.7536.7536,0,0,0-.73.6751.7649.7649,0,0,0,.7223.772,6.8387,6.8387,0,0,0,1.16-.0171c.4969-.03.9934-.1184,1.4887-.1086a2.856,2.856,0,0,1,1.0447.2194,2.0293,2.0293,0,0,1,1.2271,2.15,1.9087,1.9087,0,0,1-1.8309,1.4268,10.8478,10.8478,0,0,1-1.9674-.2127c-.462-.0743-.9068-.2641-1.37-.3248-.6881-.09-1.0669.1775-1.1864.7459a1.1121,1.1121,0,0,0,.6884,1.4225,6.5021,6.5021,0,0,0,1.3862.217c.577.0557,1.1623.0406,1.7354.1191a3.7561,3.7561,0,0,1,1.9647,1.0208,2.191,2.191,0,0,1,.7379,1.3618,1.6564,1.6564,0,0,1-2.0137,2.0153,5.3691,5.3691,0,0,1-1.3525-.3743,5.4642,5.4642,0,0,0-2.2722-.3879,26.2549,26.2549,0,0,1-2.8971-.115,3.11,3.11,0,0,1-2.89-2.562,1.483,1.483,0,0,1,1.124-1.8469,8.6109,8.6109,0,0,1,.985-.1341,3.5438,3.5438,0,0,0,.7279-.1515.7788.7788,0,0,0,.5144-.7821.7077.7077,0,0,0-.513-.687c-.21-.0675-.4236-.126-.6326-.1974a1.3034,1.3034,0,0,1-.2824-2.3955,4.384,4.384,0,0,1,.9968-.3874c.65-.2063.9437-.4942.9715-.99a1.1494,1.1494,0,0,0-.91-1.1414c-.3922-.1356-.8035-.2227-1.1835-.3848a1.6659,1.6659,0,0,1-1.0763-1.1758,1.3225,1.3225,0,0,1,.79-1.6189,1.87,1.87,0,0,1,.4764-.1444C2150.1555,15.6974,2150.434,15.6956,2150.88,15.6705Z"/><path class="cls-1" d="M2211.7683,13.6622c.4017.0606.9951.1149,1.5716.2443a7.5209,7.5209,0,0,0,3.9714-.2377,10.1635,10.1635,0,0,1,2.9329-.5,2.2317,2.2317,0,0,1,2.0934,3.2072,2.37,2.37,0,0,1-1.6658,1.27c-1.192.2314-2.3972.4016-3.602.5571-.4934.0637-1.0039-.0123-1.5.038a.8507.8507,0,0,0-.8237.7622.8635.8635,0,0,0,.8154.8715,7.72,7.72,0,0,0,1.31-.0192c.561-.0333,1.1216-.1338,1.6807-.1227a3.2245,3.2245,0,0,1,1.18.2478,2.291,2.291,0,0,1,1.3854,2.4271,2.1549,2.1549,0,0,1-2.0671,1.6109,12.2453,12.2453,0,0,1-2.2211-.24c-.5217-.0839-1.0239-.2982-1.5463-.3668-.7768-.1019-1.2045.2-1.3394.8421a1.2556,1.2556,0,0,0,.7772,1.6061,7.3459,7.3459,0,0,0,1.565.245c.6515.0629,1.3123.0458,1.9593.1345a4.24,4.24,0,0,1,2.2182,1.1524,2.474,2.474,0,0,1,.8331,1.5375,1.87,1.87,0,0,1-2.2735,2.2753,6.0584,6.0584,0,0,1-1.5269-.4226,6.169,6.169,0,0,0-2.5654-.4379,29.6789,29.6789,0,0,1-3.2709-.13,3.5116,3.5116,0,0,1-3.2633-2.8926,1.6742,1.6742,0,0,1,1.2691-2.0852,9.7591,9.7591,0,0,1,1.1119-.1514,4.0025,4.0025,0,0,0,.8219-.1709.88.88,0,0,0,.5808-.883.7989.7989,0,0,0-.5792-.7757c-.2375-.0762-.4783-.1423-.7142-.2229a1.4715,1.4715,0,0,1-.3188-2.7046,4.946,4.946,0,0,1,1.1253-.4373c.7335-.233,1.0654-.5579,1.0969-1.1181a1.2977,1.2977,0,0,0-1.0278-1.2886c-.4428-.1531-.9071-.2515-1.3362-.4345a1.8812,1.8812,0,0,1-1.2152-1.3275,1.4931,1.4931,0,0,1,.8924-1.8277,2.1142,2.1142,0,0,1,.5378-.1631C2210.95,13.6925,2211.2642,13.6906,2211.7683,13.6622Z"/><path class="cls-1" d="M2177.1565,20.0042c0,1.2188-.0363,2.4389.01,3.6559.0485,1.2766.2091,2.549.2559,3.8256a8.2257,8.2257,0,0,1-.1485,2.1232,2.06,2.06,0,0,1-2.1718,1.6281,2.0982,2.0982,0,0,1-2.0862-1.6339,5.8986,5.8986,0,0,1,.1215-3.255c.2664-.945.5675-1.88.8424-2.823a3.6036,3.6036,0,0,0,.1279-.7012.9066.9066,0,0,0-.5067-1.0412,1.1419,1.1419,0,0,0-1.3377.4447c-.1569.246-.2193.55-.36.8089a4.4775,4.4775,0,0,1-.6949,1.12,1.6943,1.6943,0,0,1-2.83-.66c-.116-.3036-.1573-.635-.2617-.9439a1.0129,1.0129,0,0,0-1.04-.8093c-.542-.0036-.8506.2368-.8765.7885a13.0778,13.0778,0,0,0,.0931,1.3319,23.2644,23.2644,0,0,1,.1028,2.4051,2.3961,2.3961,0,0,1-1.3977,2.1363,1.9887,1.9887,0,0,1-2.8857-1.04,6.0815,6.0815,0,0,1-.2855-3.5988,21.79,21.79,0,0,0,.6695-4.8507A4.0584,4.0584,0,0,1,2162.7,17.87a1.8573,1.8573,0,0,1,.1716-.4111,1.4688,1.4688,0,0,1,1.3661-.8512,1.5293,1.5293,0,0,1,1.4146,1.0579c.1026.3079.1325.64.2062.958a3.7737,3.7737,0,0,0,.2124.7685,1.2846,1.2846,0,0,0,1.3513.6676,1.0407,1.0407,0,0,0,.9069-.9618c.0707-.3491.0933-.7108.194-1.05a1.61,1.61,0,0,1,1.5858-1.2032,1.4845,1.4845,0,0,1,1.6014,1.1528c.1229.3652.1657.7568.2781,1.1262a1.0842,1.0842,0,0,0,1.1519.9059c.5629-.0723.8692-.4415.9226-1.1307.0252-.3268,0-.66.0544-.9811a3.1886,3.1886,0,0,1,.2815-.9266,1.383,1.383,0,0,1,1.3248-.7619,1.15,1.15,0,0,1,1.1239.88c.2329.945.3734,1.9129.5525,2.8712Z"/><path class="cls-1" d="M2198.2911,17.7815c0-1.0767-.007-2.1536.0048-3.23.003-.2735.0775-.5454.0988-.82a.9988.9988,0,0,0-.964-1.2015c-.4117-.054-.8289-.0647-1.2431-.1a3.5619,3.5619,0,0,1-2.5832-1.3305,2.48,2.48,0,0,1-.4992-2.0359,1.4114,1.4114,0,0,1,1.3151-1.19,3.5388,3.5388,0,0,1,1.9362.3525c.5484.2623,1.1121.4974,1.6825.7081a9.7948,9.7948,0,0,0,3.03.4267,2.0259,2.0259,0,0,1,1.7441.7827,1.5712,1.5712,0,0,1-.6073,2.4425,5.7638,5.7638,0,0,1-1.2725.348c-.8771.1859-1.2861.5657-1.3388,1.4427a11.973,11.973,0,0,0,.21,3.6375c.2955,1.188.68,1.5018,1.8928,1.5834a6.2568,6.2568,0,0,1,1.309.1923,2.0527,2.0527,0,0,1,1.5013,1.6217,1.4166,1.4166,0,0,1-.4553,1.43,1.2949,1.2949,0,0,1-1.4777.2053c-.3005-.1344-.563-.3516-.8518-.5154a2.7742,2.7742,0,0,0-.6674-.315.5385.5385,0,0,0-.7591.5161,2.8317,2.8317,0,0,0,.0136.8289,15.6152,15.6152,0,0,1,.098,3.8077c-.0111.166-.0214.3323-.0241.4985-.014.8533.1464,1.0774.9451,1.3284.2108.0663.4263.12.6317.2a.9047.9047,0,0,1-.1012,1.7585,1.9009,1.9009,0,0,1-.8958.047c-1.0209-.2507-2.0326-.5413-3.0394-.8447a.8076.8076,0,0,1-.6446-.6891.7075.7075,0,0,1,.5509-.7429,1.8939,1.8939,0,0,0,1.253-1.9607c.034-1.1048-.0312-2.2128-.0614-3.3192-.006-.22-.0483-.4389-.0716-.6585-.1191-1.12-.6671-1.4876-1.77-1.1826-.267.0738-.526.1814-.7961.2383a2.0056,2.0056,0,0,1-1.729-.3658,1.6013,1.6013,0,0,1-.5469-1.92,1.5122,1.5122,0,0,1,1.6825-.921c.3564.0421.7081.1265,1.06.1994C2197.9864,19.27,2198.4133,18.9269,2198.2911,17.7815Z"/><path class="cls-1" d="M1727.8664,10.9945a13.6374,13.6374,0,0,1,1.567.2192,10.4071,10.4071,0,0,0,6.193-.1463,5.858,5.858,0,0,1,3.267-.1127,2.8966,2.8966,0,0,1,1.7818,4.5224,2.18,2.18,0,0,1-.734.6473,5.2048,5.2048,0,0,1-2.9994.6457,21.2381,21.2381,0,0,1-4.31-.6566,4.5909,4.5909,0,0,0-2.3622.0544.8432.8432,0,0,0-.7132.7754,9.2349,9.2349,0,0,0,.02,1.7855c.0874.6863.467.891,1.2118.7073,1.007-.2484,2.0055-.5319,3.0069-.8028.213-.0576.4241-.1228.6341-.19a7.8792,7.8792,0,0,1,4.2469.1085,2.247,2.247,0,0,1,1.4808,2.0154,3.0117,3.0117,0,0,1-3.9425,3.2059,20.1674,20.1674,0,0,0-4.0314-.7418,9.7252,9.7252,0,0,0-1.5864.0479.8577.8577,0,0,0-.8228.8822,9.3379,9.3379,0,0,0-.0121,1.1273.767.767,0,0,0,.6726.8588,8.9756,8.9756,0,0,0,5.285.0781,3.8949,3.8949,0,0,1,2.4175-.0162,2.61,2.61,0,0,1,1.8661,3.035,2.3045,2.3045,0,0,1-1.6659,1.6565,10.9874,10.9874,0,0,1-1.9414.3934,17.036,17.036,0,0,1-5.5372-.1982,2.3083,2.3083,0,0,1-.3888-.0768c-1.2814-.4792-2.5672-.948-3.8354-1.46a2.4893,2.4893,0,0,1-.85-.6149,1.47,1.47,0,0,1,.23-2.2584,6.425,6.425,0,0,1,1.4458-.6233,1.0318,1.0318,0,0,0,.8354-1.0454.916.916,0,0,0-.86-1.0533c-.1511-.0277-.3071-.0283-.4608-.0412a2.0775,2.0775,0,0,1-1.9441-1.6258,2.1,2.1,0,0,1,.8976-2.3714,3.1034,3.1034,0,0,1,.93-.3,3.503,3.503,0,0,1,.5292-.0136c.6683-.0509.9007-.2846.9045-.9654a9.098,9.098,0,0,0-.0866-1.1833.9465.9465,0,0,0-.8831-.8472c-.2176-.0377-.4356-.0737-.6528-.1139a2.5094,2.5094,0,0,1-2.0455-2.29,2.5971,2.5971,0,0,1,2.7716-2.962c.1548-.0017.31,0,.4645,0Z"/><path class="cls-1" d="M1676.45,16.8839c0,.8042-.0224,1.6092.0065,2.4123.0267.74.2807,1.0086.996,1.0644a15.8345,15.8345,0,0,0,1.8275.0446c.79-.03,1.1239-.385,1.0478-1.1713-.0878-.9075-.24-1.81-.395-2.71a20.859,20.859,0,0,1-.3106-4.2157,5.2825,5.2825,0,0,1,.88-2.7332,2.5681,2.5681,0,0,1,3.778-.68c1.6037,1.2118,2.0328,2.3114,1.63,4.6066a9.5045,9.5045,0,0,1-.4962,1.5814,29.5668,29.5668,0,0,0-1.4917,4.9216,7.2665,7.2665,0,0,0,.6884,4.839,7.1807,7.1807,0,0,1,.8972,3.7509,2.2525,2.2525,0,0,1-1.72,2.176,2.0726,2.0726,0,0,1-2.43-1.1393,8.6488,8.6488,0,0,1-.6593-2.4641c-.1438-1.2354-.1259-2.4892-.1861-3.7347-.0465-.961-.3328-1.2994-1.2775-1.41a5.1148,5.1148,0,0,0-1.4776.0068c-.6861.1231-.8986.57-.6547,1.235a7.1417,7.1417,0,0,0,.4477.8887,6.11,6.11,0,0,1,.974,3.4626,2.5356,2.5356,0,0,1-.7391,1.6239,1.6108,1.6108,0,0,1-2.2539.1256,3.2946,3.2946,0,0,1-1.23-2.3629c-.09-.8232-.1622-1.6492-.2836-2.4678-.1189-.8017-.3961-1.1165-.88-1.1091a1.6721,1.6721,0,0,0-1.5018,1.3269,12.727,12.727,0,0,0,.0522,1.3275c.0342.7177.1125,1.4365.0957,2.153a3.0715,3.0715,0,0,1-3.3095,2.9982,1.9335,1.9335,0,0,1-1.5359-.8689,5.9326,5.9326,0,0,1-1.08-3.347c-.0167-1.1094-.0134-2.2194-.0016-3.329a10.4152,10.4152,0,0,0-1.9347-5.9914,10.214,10.214,0,0,1-1.6612-3.7716,6.0407,6.0407,0,0,1,.2178-3.4359,2.8743,2.8743,0,0,1,2.6282-1.8621,2.0692,2.0692,0,0,1,1.9709,1.165,4.0834,4.0834,0,0,1,.5536,1.9785,17.2025,17.2025,0,0,0,.5166,4.7727c.2982.9185.6518,1.8206,1.0145,2.7163.3116.7694.6625,1.5235,1.0122,2.2769.3987.8591.7869,1.0041,1.66.6433.1533-.0634.3-.1433.4471-.2208a1.2433,1.2433,0,0,0,.7442-1.7647c-.3557-1.1922-.77-2.3683-1.0854-3.5706a10.5222,10.5222,0,0,1-.25-1.9673,3.3314,3.3314,0,0,1,.8348-2.2809,2.0562,2.0562,0,0,1,3.4611.3592,6.2855,6.2855,0,0,1,.46,1.5785,8.2424,8.2424,0,0,1,.0624,1.3269c.0085.4151.0018.83.0018,1.2458Z"/><path class="cls-1" d="M1600.2893,17.6426c-2.1907,0-3.7147.0271-5.2371-.0111-.7991-.02-1.5947-.1613-2.3932-.2332a2.7186,2.7186,0,0,0-.6638.0265c-.8308.132-1.13.7724-.6206,1.4488a2.8316,2.8316,0,0,0,1.0241.8063,7.1593,7.1593,0,0,0,2.6471.6368,13.2322,13.2322,0,0,1,4.3876.7948,4.0734,4.0734,0,0,1,2.5293,2.8681c.064.2409.1211.4841.1963.7215a1.2652,1.2652,0,0,0,.9207.8776c.2933.0812.5932.1389.89.2079a2.3082,2.3082,0,0,1,1.81,1.9479,2.383,2.383,0,0,1-.8717,2.5242,4.6184,4.6184,0,0,1-3.6031.93,59.4426,59.4426,0,0,1-6.8337-1.3581,42.2933,42.2933,0,0,0-4.3452-.6156,12.0426,12.0426,0,0,1-2.1941-.3657,2.3374,2.3374,0,0,1-1.7707-2.7277,2.7721,2.7721,0,0,1,2.57-2.3176,7.57,7.57,0,0,1,3.8146.596c.7087.3149,1.4124.6425,2.13.9354a10.4562,10.4562,0,0,0,4.1929.8959c1.6763-.0354,2.2315-.9531,1.5162-2.4754a2.7186,2.7186,0,0,0-1.433-1.3175,9.2088,9.2088,0,0,0-3.563-.699,10.6182,10.6182,0,0,1-3.3265-.6579,3.4593,3.4593,0,0,1-2.3438-2.3938,1.5514,1.5514,0,0,0-1.4532-1.256,6.7882,6.7882,0,0,1-1.5944-.444,3.4338,3.4338,0,0,1-2.04-3.9033,3.8366,3.8366,0,0,1,2.9339-3.1545,10.7071,10.7071,0,0,1,3.9541-.1015,11.4832,11.4832,0,0,0,6.1956-.7012,16.7361,16.7361,0,0,1,2.2667-.81,6.4305,6.4305,0,0,1,4.3057.3163,1.4721,1.4721,0,0,1,.3567.21,4.9293,4.9293,0,0,1,1.9564,4.6011,4.0365,4.0365,0,0,1-2.9253,3.402A8.3134,8.3134,0,0,1,1600.2893,17.6426Z"/><path class="cls-1" d="M1621.8033,18.3755c-.0607,1.1052-.1807,2.2112-.1655,3.3154a28.4364,28.4364,0,0,0,.2675,3.3028,6.3078,6.3078,0,0,1-.7651,4.2419,3.9535,3.9535,0,0,1-3.4258,1.9934,5.3732,5.3732,0,0,1-4.0464-1.3892,3.7959,3.7959,0,0,1-1.21-2.476,10.387,10.387,0,0,1,.2661-3.6247,6.6647,6.6647,0,0,0-.61-4.7394,6.6677,6.6677,0,0,1-.78-2.5234,3.8941,3.8941,0,0,1,2.5968-3.9315,6.0436,6.0436,0,0,1,6.8474,2.0591,5.3156,5.3156,0,0,1,1.0056,2.9388c.0229.2755.0035.5546.0035.832Z"/><path class="cls-1" d="M1703.7389,30.4169c-.4717,0-.9465.0344-1.4147-.0066a1.994,1.994,0,0,1-1.9327-2.24,2.1412,2.1412,0,0,1,.852-1.3781c.8373-.7405.89-.9527.3958-1.917q-1.1572-2.2563-2.3372-4.5008c-.2155-.4077-.4217-.9551-.97-.8983-.4891.0507-.5742.6056-.7787.9955-.4364.832-.9077,1.6459-1.3723,2.4629-.15.2645-.3414.5066-.4854.7743-.4679.87-.3453,1.2931.4969,1.7753.2164.1239.449.2232.653.3645a3.8119,3.8119,0,0,1,1.7568,2.9662,1.9781,1.9781,0,0,1-1.9212,2.2555,24.3943,24.3943,0,0,1-5.7224-.0031,3.88,3.88,0,0,1-3.36-2.6338c-.62-1.7735-.1027-3.8139,2.2967-4.208a7.9021,7.9021,0,0,1,2.6421.0642,1.4735,1.4735,0,0,0,1.6593-.797q.54-.8875,1.1243-1.7478a9.556,9.556,0,0,0,1.3178-2.9459c.2381-.8948-.0321-1.232-.9675-1.2707-.6917-.0286-1.3866-.0318-2.0735-.1065a3.438,3.438,0,0,1-1.1894-.3268,1.4143,1.4143,0,0,1-.3529-2.3112,2.1968,2.1968,0,0,1,1.4809-.67,6.2275,6.2275,0,0,1,.8321-.0032,6.3228,6.3228,0,0,0,2.6862-.4338,5.02,5.02,0,0,1,2.619-.2535,1.8862,1.8862,0,0,1,1.3981,2.5417,2.635,2.635,0,0,1-.6977.7886c-.74.5683-.86.9093-.4529,1.7649.2855.6.6228,1.1754.9306,1.7651q.8466,1.6219,1.6857,3.2478c.14.2706.2647.55.42.8118.6092,1.0229.97,1.1223,2.02.59a3.9342,3.9342,0,0,1,.6862-.2947,1.7151,1.7151,0,0,1,2.2672,1.12,3.3435,3.3435,0,0,1-3.11,4.6662c-.3608.0037-.7216.0005-1.0825.0005Z"/><path class="cls-1" d="M1649.0246,13.6622c.4017.0606.9951.1149,1.5717.2443a7.5209,7.5209,0,0,0,3.9714-.2377,10.1635,10.1635,0,0,1,2.9329-.5,2.2317,2.2317,0,0,1,2.0934,3.2072,2.3706,2.3706,0,0,1-1.6659,1.27c-1.1919.2314-2.3971.4016-3.6019.5571-.4934.0637-1.004-.0123-1.5.038a.8509.8509,0,0,0-.8237.7622.8636.8636,0,0,0,.8155.8715,7.7191,7.7191,0,0,0,1.31-.0192c.5611-.0333,1.1216-.1338,1.6808-.1227a3.2245,3.2245,0,0,1,1.1795.2478,2.291,2.291,0,0,1,1.3854,2.4271,2.1549,2.1549,0,0,1-2.0671,1.6109,12.2473,12.2473,0,0,1-2.2212-.24c-.5217-.0839-1.0239-.2982-1.5463-.3668-.7768-.1019-1.2044.2-1.3394.8421a1.2558,1.2558,0,0,0,.7772,1.6061,7.3459,7.3459,0,0,0,1.565.245c.6515.0629,1.3123.0458,1.9594.1345a4.2409,4.2409,0,0,1,2.2182,1.1524,2.4745,2.4745,0,0,1,.8331,1.5375,1.87,1.87,0,0,1-2.2735,2.2753,6.0592,6.0592,0,0,1-1.527-.4226,6.1685,6.1685,0,0,0-2.5654-.4379,29.678,29.678,0,0,1-3.2708-.13,3.5115,3.5115,0,0,1-3.2633-2.8926,1.6743,1.6743,0,0,1,1.269-2.0852,9.7639,9.7639,0,0,1,1.112-.1514,4.0053,4.0053,0,0,0,.8219-.1709.88.88,0,0,0,.5808-.883.799.799,0,0,0-.5793-.7757c-.2374-.0762-.4782-.1423-.7142-.2229a1.4715,1.4715,0,0,1-.3188-2.7046,4.9467,4.9467,0,0,1,1.1254-.4373c.7334-.233,1.0654-.5579,1.0969-1.1181a1.2978,1.2978,0,0,0-1.0279-1.2886c-.4427-.1531-.9071-.2515-1.3361-.4345a1.8808,1.8808,0,0,1-1.2152-1.3275,1.493,1.493,0,0,1,.8923-1.8277,2.1154,2.1154,0,0,1,.5378-.1631C1648.2061,13.6925,1648.5205,13.6906,1649.0246,13.6622Z"/><path class="cls-1" d="M1642.3111,19.2029c0,1.3057-.0388,2.6128.0107,3.9166.0519,1.3677.2239,2.7309.2741,4.0986a8.8159,8.8159,0,0,1-.1591,2.2747,2.2074,2.2074,0,0,1-2.3268,1.7442,2.2477,2.2477,0,0,1-2.2349-1.75,6.3193,6.3193,0,0,1,.13-3.4872c.2854-1.0124.608-2.0144.9025-3.0244a3.8686,3.8686,0,0,0,.1371-.7512.9714.9714,0,0,0-.5429-1.1155,1.2236,1.2236,0,0,0-1.4332.4764c-.1681.2636-.2349.59-.3859.8667a4.798,4.798,0,0,1-.7444,1.2,1.8152,1.8152,0,0,1-3.0324-.7076c-.1242-.3253-.1685-.68-.28-1.0113a1.0851,1.0851,0,0,0-1.1141-.8671c-.5807-.0038-.9113.2537-.939.8448a14,14,0,0,0,.1,1.4269,24.9092,24.9092,0,0,1,.11,2.5767,2.5669,2.5669,0,0,1-1.4974,2.2887,2.1305,2.1305,0,0,1-3.0915-1.1139,6.5163,6.5163,0,0,1-.306-3.8556,23.3373,23.3373,0,0,0,.7173-5.1967,4.354,4.354,0,0,1,.2185-1.12,1.9881,1.9881,0,0,1,.1838-.44,1.5735,1.5735,0,0,1,1.4636-.9119,1.6383,1.6383,0,0,1,1.5155,1.1333c.11.33.142.6853.2209,1.0264a4.0515,4.0515,0,0,0,.2275.8234,1.3764,1.3764,0,0,0,1.4478.7152,1.1147,1.1147,0,0,0,.9715-1.03c.0758-.3739.1-.7615.2079-1.125a1.7252,1.7252,0,0,1,1.699-1.289,1.59,1.59,0,0,1,1.7156,1.2351c.1317.3912.1775.8107.2979,1.2065a1.1618,1.1618,0,0,0,1.2342.9706c.603-.0776.9312-.4731.9883-1.2115.0271-.35,0-.7073.0583-1.051a3.4128,3.4128,0,0,1,.3016-.9927,1.4817,1.4817,0,0,1,1.4193-.8163,1.2314,1.2314,0,0,1,1.2041.943c.2495,1.0124.4,2.0493.5919,3.076Z"/><path class="cls-1" d="M1713.1984,22.2082a5.718,5.718,0,0,0,1.013,3.4459,6.1955,6.1955,0,0,1,.9455,2.4643,2.8064,2.8064,0,0,1-3.1182,3.0792,2.0427,2.0427,0,0,1-1.6655-2.7233,4.6208,4.6208,0,0,1,.7373-1.3772,3.7354,3.7354,0,0,0,.82-2.55c-.0541-.995-.1123-1.9905-.2077-2.982a.82.82,0,0,0-.3284-.604c-.1587-.0676-.4546.0878-.6431.215a8.18,8.18,0,0,0-.5985.57,2.1485,2.1485,0,0,1-2.6189.1454,2.0709,2.0709,0,0,1-.86-2.3171,2.96,2.96,0,0,1,.1479-.5606c.6232-1.3591,1.24-2.7214,1.8965-4.0645a1.9968,1.9968,0,0,1,1.4461-1.1481,1.7478,1.7478,0,0,1,1.7333.5562,3.128,3.128,0,0,1,.826,1.9471c.0216.3316.0065.6653.0142.9979a.9768.9768,0,0,0,.7287,1,8.6552,8.6552,0,0,0,3.62.1545.7168.7168,0,0,0,.5562-.954c-.0915-.346-.2685-.6686-.3747-1.0117a2.8488,2.8488,0,0,1-.1808-.8848.7211.7211,0,0,1,1.0578-.6483,1.7486,1.7486,0,0,1,.7064.5513,8.4831,8.4831,0,0,1,1.6427,4.7884,2.1108,2.1108,0,0,1-.3456,1.0823,1.0277,1.0277,0,0,1-1.8289-.091.2772.2772,0,0,1-.0391-.0731c-.2487-1.15-1.0834-1.3376-2.0821-1.2925-.5812.0263-1.1648-.0061-1.7468.0075-.8842.0207-1.1792.3007-1.249,1.197C1713.1751,21.4857,1713.1984,21.8479,1713.1984,22.2082Z"/><path class="cls-1" d="M1842.685,10.6513a13.6153,13.6153,0,0,1,1.567.2191,10.4071,10.4071,0,0,0,6.193-.1463,5.8588,5.8588,0,0,1,3.267-.1127,2.8967,2.8967,0,0,1,1.7818,4.5224,2.18,2.18,0,0,1-.734.6473,5.2049,5.2049,0,0,1-2.9994.6457,21.231,21.231,0,0,1-4.31-.6565,4.5908,4.5908,0,0,0-2.3622.0543.8432.8432,0,0,0-.7132.7754,9.2268,9.2268,0,0,0,.02,1.7855c.0874.6864.467.891,1.2118.7073,1.007-.2484,2.0054-.5318,3.0069-.8028.2129-.0576.4241-.1227.6341-.19a7.88,7.88,0,0,1,4.2469.1086,2.2468,2.2468,0,0,1,1.4808,2.0154,3.0117,3.0117,0,0,1-3.9425,3.2058,20.1758,20.1758,0,0,0-4.0314-.7418,9.7362,9.7362,0,0,0-1.5864.048.8578.8578,0,0,0-.8229.8822,9.3566,9.3566,0,0,0-.012,1.1272.767.767,0,0,0,.6726.8589,8.9756,8.9756,0,0,0,5.285.078,3.8956,3.8956,0,0,1,2.4175-.0162,2.6105,2.6105,0,0,1,1.8661,3.035,2.3046,2.3046,0,0,1-1.6659,1.6565,10.9885,10.9885,0,0,1-1.9415.3934,17.03,17.03,0,0,1-5.5371-.1982,2.2965,2.2965,0,0,1-.3888-.0768c-1.2814-.4792-2.5672-.948-3.8354-1.46a2.4873,2.4873,0,0,1-.85-.615,1.47,1.47,0,0,1,.23-2.2584,6.4276,6.4276,0,0,1,1.4458-.6233,1.0318,1.0318,0,0,0,.8354-1.0454.916.916,0,0,0-.86-1.0533c-.151-.0277-.307-.0283-.4607-.0411a2.0775,2.0775,0,0,1-1.9441-1.6259,2.1,2.1,0,0,1,.8976-2.3714,3.1034,3.1034,0,0,1,.93-.3,3.502,3.502,0,0,1,.5291-.0136c.6684-.0508.9007-.2845.9046-.9654a9.098,9.098,0,0,0-.0866-1.1833.9465.9465,0,0,0-.8831-.8472c-.2177-.0377-.4356-.0737-.6528-.1139a2.51,2.51,0,0,1-2.0456-2.29,2.5971,2.5971,0,0,1,2.7716-2.962c.1549-.0017.31,0,.4646,0Z"/><path class="cls-1" d="M1828.6725,25.2834c0-.4435.0184-.888-.0047-1.33-.0291-.5575-.27-.8288-.8231-.8442a10.0239,10.0239,0,0,0-1.7406.0913.98.98,0,0,0-.8991.9472c-.0406.58-.0129,1.1664-.07,1.7445a13.3151,13.3151,0,0,1-.3212,2.2091,3.8446,3.8446,0,0,1-2.8938,2.714,3.2862,3.2862,0,0,1-3.4-1.5582,4.3842,4.3842,0,0,1-.54-2.0678,14.6181,14.6181,0,0,1,.9143-5.3792,20.0017,20.0017,0,0,0,.927-5.8817,8.6494,8.6494,0,0,1,.2091-1.7239,2.209,2.209,0,0,1,1.9367-1.6946,2.123,2.123,0,0,1,2.0509,1.4213,8.5546,8.5546,0,0,1,.4474,2.0953c.1521,1.4861.2216,2.98.3466,4.47.0738.88.45,1.2249,1.33,1.261a4.71,4.71,0,0,0,.9122-.0377c.9659-.1505,1.4134-.5209,1.4066-1.7911-.0032-.6078-.0538-1.216-.0977-1.8229-.072-.9937-.1712-1.9856-.2306-2.98a21.8109,21.8109,0,0,1-.0885-2.7317,4.1043,4.1043,0,0,1,3.8359-3.8948c.4407-.0461.8784-.1592,1.3185-.1646a6.8764,6.8764,0,0,1,1.6357.1184c1.7324.405,2.3563,1.7063,2.5025,3.3151a3.5024,3.5024,0,0,1-1.8617,3.692,29.5393,29.5393,0,0,1-2.6724,1.3362,2.6206,2.6206,0,0,0-1.8364,2.338,11.5191,11.5191,0,0,0,.0212,2.2162,2.2628,2.2628,0,0,0,1.2559,1.6689,10.1009,10.1009,0,0,1,.9188.5681,3.6821,3.6821,0,0,1,1.3385,4.1346,2.9387,2.9387,0,0,1-2.863,2.0123,2.5188,2.5188,0,0,1-2.6043-1.6825,2.9575,2.9575,0,0,1-.2951-.86c-.0769-.6313-.0925-1.27-.1332-1.9057Z"/><path class="cls-1" d="M1879.2169,13.6622c.4017.0606.9951.1149,1.5717.2443a7.5206,7.5206,0,0,0,3.9713-.2377,10.1636,10.1636,0,0,1,2.933-.5,2.2318,2.2318,0,0,1,2.0934,3.2072,2.3708,2.3708,0,0,1-1.6659,1.27c-1.192.2314-2.3971.4016-3.6019.5571-.4935.0637-1.004-.0123-1.5.038a.8509.8509,0,0,0-.8237.7622.8635.8635,0,0,0,.8154.8715,7.72,7.72,0,0,0,1.31-.0192c.5611-.0333,1.1216-.1338,1.6807-.1227a3.2241,3.2241,0,0,1,1.1795.2478,2.2912,2.2912,0,0,1,1.3855,2.4271,2.1549,2.1549,0,0,1-2.0671,1.6109,12.2473,12.2473,0,0,1-2.2212-.24c-.5217-.0839-1.0239-.2982-1.5463-.3668-.7768-.1019-1.2044.2-1.3394.8421a1.2556,1.2556,0,0,0,.7772,1.6061,7.3459,7.3459,0,0,0,1.565.245c.6515.0629,1.3123.0458,1.9594.1345a4.24,4.24,0,0,1,2.2181,1.1524,2.4746,2.4746,0,0,1,.8332,1.5375,1.87,1.87,0,0,1-2.2736,2.2753,6.06,6.06,0,0,1-1.5269-.4226,6.1687,6.1687,0,0,0-2.5654-.4379,29.68,29.68,0,0,1-3.2709-.13,3.5116,3.5116,0,0,1-3.2633-2.8926,1.6743,1.6743,0,0,1,1.2691-2.0852,9.7608,9.7608,0,0,1,1.112-.1514,4.0053,4.0053,0,0,0,.8219-.1709.8794.8794,0,0,0,.5807-.883.7989.7989,0,0,0-.5792-.7757c-.2375-.0762-.4783-.1423-.7142-.2229a1.4715,1.4715,0,0,1-.3188-2.7046,4.9449,4.9449,0,0,1,1.1254-.4373c.7334-.233,1.0654-.5579,1.0968-1.1181a1.2976,1.2976,0,0,0-1.0278-1.2886c-.4427-.1531-.9071-.2515-1.3362-.4345a1.8809,1.8809,0,0,1-1.2151-1.3275,1.493,1.493,0,0,1,.8923-1.8277,2.1154,2.1154,0,0,1,.5378-.1631C1878.3984,13.6925,1878.7128,13.6906,1879.2169,13.6622Z"/><path class="cls-1" d="M1866.2965,20.4107a5.7173,5.7173,0,0,0,1.0129,3.4459,6.1955,6.1955,0,0,1,.9455,2.4643,2.8062,2.8062,0,0,1-3.1182,3.0791,2.0424,2.0424,0,0,1-1.6654-2.7232,4.6183,4.6183,0,0,1,.7372-1.3772,3.7354,3.7354,0,0,0,.82-2.55c-.0541-.995-.1123-1.9905-.2076-2.9821a.8212.8212,0,0,0-.3284-.604c-.1588-.0675-.4547.0879-.6432.2151a8.1785,8.1785,0,0,0-.5984.57,2.1484,2.1484,0,0,1-2.619.1454,2.0708,2.0708,0,0,1-.86-2.317,2.9634,2.9634,0,0,1,.1479-.5607c.6232-1.359,1.24-2.7213,1.8965-4.0644a1.9965,1.9965,0,0,1,1.4462-1.1481,1.7475,1.7475,0,0,1,1.7332.5561,3.1283,3.1283,0,0,1,.826,1.9472c.0216.3315.0065.6653.0142.9979a.9766.9766,0,0,0,.7287,1,8.6535,8.6535,0,0,0,3.62.1546.7168.7168,0,0,0,.5562-.954c-.0915-.346-.2685-.6686-.3747-1.0117a2.8463,2.8463,0,0,1-.1807-.8848.721.721,0,0,1,1.0577-.6483,1.7493,1.7493,0,0,1,.7064.5512,8.4837,8.4837,0,0,1,1.6427,4.7885,2.1092,2.1092,0,0,1-.3456,1.0822,1.0276,1.0276,0,0,1-1.8289-.0909.2772.2772,0,0,1-.0391-.0731c-.2487-1.15-1.0833-1.3377-2.0821-1.2925-.5812.0263-1.1648-.0061-1.7468.0075-.8841.0207-1.1791.3007-1.249,1.1969C1866.2731,19.6882,1866.2965,20.05,1866.2965,20.4107Z"/><path class="cls-1" d="M645.0472,13.6826c.1716-1.1463.3233-2.2961.5194-3.4382A3.951,3.951,0,0,1,649.27,7.0972,9.6727,9.6727,0,0,1,654.36,7.99c.7315.3308,1.4361.7207,2.1525,1.0847a7.6755,7.6755,0,0,0,6.66.3054A6.5309,6.5309,0,0,1,666.4,8.7645a3.745,3.745,0,0,1,3.4908,3.4322,5.303,5.303,0,0,1-.45,2.918,2.9353,2.9353,0,0,1-5.0992.6782,9.1541,9.1541,0,0,0-2.069-1.9027,6.7809,6.7809,0,0,0-2.5277-1.0068c-.7927-.1308-1.5817-.2842-2.3752-.41a1.8721,1.8721,0,0,0-.6585.0037.6408.6408,0,0,0-.5511.8563,1.2259,1.2259,0,0,0,.1095.3132,14.9439,14.9439,0,0,1,1.2078,5.9784,14.2293,14.2293,0,0,0,1.28,4.9583,4.4467,4.4467,0,0,0,2.8227,2.5328,2.5413,2.5413,0,0,1,1.9488,1.9537,1.7557,1.7557,0,0,1-1.6869,2.1673,6.4428,6.4428,0,0,1-1.53-.2911,2.9214,2.9214,0,0,1-.6709-.3267,4.0323,4.0323,0,0,0-3.1271-.3585,12.1045,12.1045,0,0,1-2.3789.3137,3.2847,3.2847,0,0,1-2.0978-.6878,1.8984,1.8984,0,0,1-.2741-3.006,1.7868,1.7868,0,0,1,1.4728-.4115c.3006.0507.5994.1119.9006.1583a2.2042,2.2042,0,0,0,2.6153-2.0243,4.5471,4.5471,0,0,0-.087-1.2343c-.1561-.8432-.4134-1.6708-.5222-2.5186-.13-1.013-.1386-2.0411-.2173-3.0612a8.12,8.12,0,0,0-1.3244-3.9748,1.27,1.27,0,0,0-2.2964-.1058,10.5051,10.5051,0,0,0-.71,1.1218c-.29.4721-.5531.9628-.8683,1.4173a3.0433,3.0433,0,0,1-5.5689-1.6337c-.0141-.3046-.0021-.61-.0021-.9156Z"/><path class="cls-1" d="M694.9114,10.9945a13.6374,13.6374,0,0,1,1.567.2192,10.4071,10.4071,0,0,0,6.193-.1463,5.8579,5.8579,0,0,1,3.267-.1127,2.8966,2.8966,0,0,1,1.7818,4.5224,2.18,2.18,0,0,1-.734.6473,5.2049,5.2049,0,0,1-2.9994.6457,21.2381,21.2381,0,0,1-4.31-.6566,4.5909,4.5909,0,0,0-2.3622.0544.8431.8431,0,0,0-.7132.7754,9.2269,9.2269,0,0,0,.02,1.7855c.0874.6863.467.891,1.2118.7073,1.007-.2484,2.0055-.5319,3.0069-.8028.213-.0576.4241-.1228.6341-.19a7.8792,7.8792,0,0,1,4.2469.1085,2.247,2.247,0,0,1,1.4808,2.0154,3.0117,3.0117,0,0,1-3.9425,3.2059,20.1674,20.1674,0,0,0-4.0314-.7418,9.7249,9.7249,0,0,0-1.5864.0479.8577.8577,0,0,0-.8228.8822,9.3379,9.3379,0,0,0-.0121,1.1273.7669.7669,0,0,0,.6726.8588,8.9756,8.9756,0,0,0,5.285.0781,3.8949,3.8949,0,0,1,2.4175-.0162,2.61,2.61,0,0,1,1.8661,3.035,2.3046,2.3046,0,0,1-1.6659,1.6565,10.9874,10.9874,0,0,1-1.9414.3934,17.036,17.036,0,0,1-5.5372-.1982,2.3064,2.3064,0,0,1-.3888-.0768c-1.2814-.4792-2.5672-.948-3.8354-1.46a2.4883,2.4883,0,0,1-.85-.6149,1.47,1.47,0,0,1,.23-2.2584,6.425,6.425,0,0,1,1.4458-.6233,1.0318,1.0318,0,0,0,.8354-1.0454.916.916,0,0,0-.86-1.0533c-.1511-.0277-.3071-.0283-.4608-.0412a2.0775,2.0775,0,0,1-1.9441-1.6258,2.1,2.1,0,0,1,.8976-2.3714,3.1034,3.1034,0,0,1,.93-.3,3.502,3.502,0,0,1,.5291-.0136c.6684-.0509.9007-.2846.9046-.9654a9.098,9.098,0,0,0-.0866-1.1833.9465.9465,0,0,0-.8831-.8472c-.2176-.0377-.4356-.0737-.6528-.1139a2.51,2.51,0,0,1-2.0456-2.29A2.5971,2.5971,0,0,1,694.44,11.05c.1548-.0017.31,0,.4645,0Z"/><path class="cls-1" d="M680.8989,25.6261c0-.4435.0184-.8881-.0047-1.33-.0291-.5575-.27-.8288-.8231-.8442a10.0222,10.0222,0,0,0-1.74.0913.9805.9805,0,0,0-.8992.9472c-.0406.58-.0129,1.1664-.07,1.7445a13.3166,13.3166,0,0,1-.3212,2.2091,3.8442,3.8442,0,0,1-2.8938,2.7139,3.286,3.286,0,0,1-3.4-1.5581,4.3845,4.3845,0,0,1-.54-2.0678,14.6181,14.6181,0,0,1,.9143-5.3792,20.0017,20.0017,0,0,0,.927-5.8817,8.6494,8.6494,0,0,1,.2091-1.7239,2.2091,2.2091,0,0,1,1.9367-1.6946,2.1229,2.1229,0,0,1,2.0509,1.4213,8.5546,8.5546,0,0,1,.4474,2.0953c.1521,1.486.2217,2.98.3466,4.47.0738.88.45,1.2249,1.33,1.261a4.71,4.71,0,0,0,.9122-.0377c.9659-.1506,1.4134-.5209,1.4066-1.7911-.0032-.6078-.0538-1.216-.0977-1.8229-.072-.9937-.1712-1.9856-.2305-2.98a21.792,21.792,0,0,1-.0886-2.7317,4.1043,4.1043,0,0,1,3.8359-3.8948c.4407-.0461.8784-.1593,1.3185-.1646a6.8764,6.8764,0,0,1,1.6357.1184c1.7324.405,2.3563,1.7063,2.5025,3.315a3.5025,3.5025,0,0,1-1.8617,3.6921,29.5393,29.5393,0,0,1-2.6724,1.3362,2.6206,2.6206,0,0,0-1.8364,2.338,11.5272,11.5272,0,0,0,.0212,2.2162,2.2627,2.2627,0,0,0,1.2559,1.6688,10.1019,10.1019,0,0,1,.9188.5682,3.682,3.682,0,0,1,1.3385,4.1346,2.9388,2.9388,0,0,1-2.863,2.0123,2.5188,2.5188,0,0,1-2.6043-1.6826,2.9569,2.9569,0,0,1-.2951-.86c-.0769-.6313-.0925-1.27-.1332-1.9057Z"/><path class="cls-1" d="M731.4433,13.6622c.4017.0606.9951.1149,1.5717.2443a7.5206,7.5206,0,0,0,3.9713-.2377,10.1636,10.1636,0,0,1,2.933-.5,2.2317,2.2317,0,0,1,2.0934,3.2072,2.3708,2.3708,0,0,1-1.6659,1.27c-1.192.2314-2.3971.4016-3.6019.5571-.4935.0637-1.004-.0123-1.5.038a.8509.8509,0,0,0-.8237.7622.8636.8636,0,0,0,.8155.8715,7.7191,7.7191,0,0,0,1.31-.0192c.5611-.0333,1.1216-.1338,1.6808-.1227a3.224,3.224,0,0,1,1.1794.2478,2.291,2.291,0,0,1,1.3855,2.4271,2.1549,2.1549,0,0,1-2.0671,1.6109,12.2473,12.2473,0,0,1-2.2212-.24c-.5217-.0839-1.0239-.2982-1.5463-.3668-.7768-.1019-1.2044.2-1.3394.8421a1.2556,1.2556,0,0,0,.7772,1.6061,7.3459,7.3459,0,0,0,1.565.245c.6515.0629,1.3123.0458,1.9594.1345a4.24,4.24,0,0,1,2.2181,1.1524,2.4746,2.4746,0,0,1,.8332,1.5375,1.87,1.87,0,0,1-2.2735,2.2753,6.0592,6.0592,0,0,1-1.527-.4226,6.1687,6.1687,0,0,0-2.5654-.4379,29.68,29.68,0,0,1-3.2709-.13,3.5116,3.5116,0,0,1-3.2633-2.8926A1.6744,1.6744,0,0,1,729.34,25.237a9.7608,9.7608,0,0,1,1.112-.1514,4.0053,4.0053,0,0,0,.8219-.1709.8794.8794,0,0,0,.5807-.883.7989.7989,0,0,0-.5792-.7757c-.2375-.0762-.4783-.1423-.7142-.2229a1.4715,1.4715,0,0,1-.3188-2.7046,4.9449,4.9449,0,0,1,1.1254-.4373c.7334-.233,1.0654-.5579,1.0968-1.1181a1.2976,1.2976,0,0,0-1.0278-1.2886c-.4427-.1531-.9071-.2515-1.3362-.4345a1.8809,1.8809,0,0,1-1.2151-1.3275,1.493,1.493,0,0,1,.8923-1.8277,2.1154,2.1154,0,0,1,.5378-.1631C730.6248,13.6925,730.9392,13.6906,731.4433,13.6622Z"/><path class="cls-1" d="M718.5229,22.2082a5.7173,5.7173,0,0,0,1.0129,3.4459,6.194,6.194,0,0,1,.9455,2.4643,2.8063,2.8063,0,0,1-3.1182,3.0792,2.0426,2.0426,0,0,1-1.6654-2.7233,4.6205,4.6205,0,0,1,.7372-1.3772,3.7349,3.7349,0,0,0,.82-2.55c-.0541-.995-.1122-1.9905-.2076-2.982a.8208.8208,0,0,0-.3284-.604c-.1588-.0676-.4547.0878-.6431.215a8.14,8.14,0,0,0-.5985.57,2.1487,2.1487,0,0,1-2.619.1454,2.0708,2.0708,0,0,1-.86-2.3171,2.9527,2.9527,0,0,1,.1478-.5606c.6232-1.3591,1.24-2.7214,1.8965-4.0645a1.9969,1.9969,0,0,1,1.4462-1.1481,1.7476,1.7476,0,0,1,1.7332.5562,3.128,3.128,0,0,1,.826,1.9471c.0216.3316.0066.6653.0142.9979a.9768.9768,0,0,0,.7287,1,8.6552,8.6552,0,0,0,3.62.1545.7167.7167,0,0,0,.5562-.954c-.0915-.346-.2685-.6686-.3747-1.0117a2.8457,2.8457,0,0,1-.1807-.8848.721.721,0,0,1,1.0577-.6483,1.7486,1.7486,0,0,1,.7064.5513,8.4831,8.4831,0,0,1,1.6427,4.7884,2.1107,2.1107,0,0,1-.3455,1.0823,1.0278,1.0278,0,0,1-1.829-.091.2772.2772,0,0,1-.0391-.0731c-.2486-1.15-1.0833-1.3376-2.0821-1.2925-.5812.0263-1.1648-.0061-1.7468.0075-.8841.0207-1.1791.3007-1.249,1.197C718.5,21.4857,718.5229,21.8479,718.5229,22.2082Z"/><path class="cls-1" d="M223.7351,31.2372a26.0021,26.0021,0,0,1-8.3065-1.6992c-.5134-.193-1.0584-.3-1.5848-.4607a11.86,11.86,0,0,1-1.1917-.4042,2.4688,2.4688,0,0,1,.2131-4.63,5.4542,5.4542,0,0,1,.92-.1915c1.1411-.1636,1.4419-.4714,1.4487-1.6438.0043-.7583-.0928-1.5168-.1044-2.2758-.0179-1.1805-.0122-2.3617.0056-3.5423.0067-.4439.0859-.8862.1128-1.33.0513-.8453-.1395-1.1238-.9137-1.4422a7.7547,7.7547,0,0,1-1.1324-.5351,1.3531,1.3531,0,0,1-.77-1.3565,1.5,1.5,0,0,1,1.1155-1.2055,3.4528,3.4528,0,0,1,.9994-.2025,21.3785,21.3785,0,0,0,4.6256-.8725,8.6451,8.6451,0,0,1,1.6234-.24,1.5888,1.5888,0,0,1,1.3373,2.4349,2.6257,2.6257,0,0,1-1.4783,1.2386,26.5338,26.5338,0,0,1-2.6443.7218c-1.0031.2033-1.2387.3678-1.3983,1.3815a9.5786,9.5786,0,0,0-.1416,1.4824c0,1.9159.0258,3.8318.05,5.7476a4.8908,4.8908,0,0,0,.0874.7017c.1145.717.404.9786,1.0994.92,1.0177-.0854,2.0357-.1827,3.0471-.3219a6.1236,6.1236,0,0,0,1.2013-.3635c.4931-.177.9806-.3712,1.4637-.5742a4.8465,4.8465,0,0,1,3.8227.1842,2.4708,2.4708,0,0,1,1.1539,1.0323,5.0442,5.0442,0,0,1-.6544,5.8391A5.2335,5.2335,0,0,1,223.7351,31.2372Z"/><path class="cls-1" d="M240.17,20.5007c-.0507.9225-.1509,1.8458-.1382,2.7675a23.7275,23.7275,0,0,0,.2233,2.7571,5.2654,5.2654,0,0,1-.6387,3.541,3.3,3.3,0,0,1-2.86,1.664,4.4853,4.4853,0,0,1-3.3778-1.16,3.1688,3.1688,0,0,1-1.01-2.0669,8.67,8.67,0,0,1,.2221-3.0258,5.5638,5.5638,0,0,0-.5092-3.9563,5.5643,5.5643,0,0,1-.6509-2.1065,3.2507,3.2507,0,0,1,2.1677-3.2819,5.045,5.045,0,0,1,5.716,1.7189,4.4377,4.4377,0,0,1,.8395,2.4533c.0191.23.0029.4629.0029.6944Z"/><path class="cls-1" d="M275.0922,30.445c-.4556,0-.9141.0332-1.3662-.0064a1.9256,1.9256,0,0,1-1.8665-2.1633,2.0687,2.0687,0,0,1,.8228-1.3309c.8086-.7151.86-.92.3822-1.8513q-1.1175-2.1789-2.2571-4.3466c-.2081-.3937-.4072-.9223-.9367-.8674-.4723.0489-.5545.5848-.752.9613-.4215.8035-.8766,1.59-1.3254,2.3785-.1453.2555-.33.4893-.4686.7478-.4519.84-.3336,1.2487.48,1.7145.209.12.4336.2155.6306.352a3.6811,3.6811,0,0,1,1.6966,2.8645,1.91,1.91,0,0,1-1.8554,2.1782,23.5582,23.5582,0,0,1-5.5262-.0029,3.747,3.747,0,0,1-3.2453-2.5436c-.5985-1.7127-.0992-3.6832,2.218-4.0638a7.63,7.63,0,0,1,2.5515.062,1.4231,1.4231,0,0,0,1.6025-.77q.5211-.8573,1.0858-1.6879a9.2292,9.2292,0,0,0,1.2726-2.8449c.23-.8642-.031-1.19-.9344-1.2272-.668-.0276-1.339-.0307-2.0024-.1029A3.321,3.321,0,0,1,264.15,17.58a1.3659,1.3659,0,0,1-.3408-2.2321,2.1225,2.1225,0,0,1,1.43-.6473,6.0206,6.0206,0,0,1,.8037-.003,6.1069,6.1069,0,0,0,2.5941-.419,4.848,4.848,0,0,1,2.5292-.2448,1.8217,1.8217,0,0,1,1.35,2.4547,2.5451,2.5451,0,0,1-.6738.7615c-.7145.5489-.8306.8781-.4374,1.7045.2757.5795.6015,1.1351.8987,1.7046q.8176,1.5663,1.628,3.1365c.1354.2613.2556.5316.4059.784.5884.9878.9365,1.0838,1.951.57a3.7928,3.7928,0,0,1,.6627-.2847,1.6561,1.6561,0,0,1,2.1894,1.0818,3.2289,3.2289,0,0,1-3.0032,4.5063c-.3484.0036-.6969,0-1.0454,0Z"/><path class="cls-1" d="M246.4377,17.9034c1.8773.1437,3.755.2825,5.6315.4363a5.8233,5.8233,0,0,1,.8945.1785,2.9745,2.9745,0,0,1,2.32,2.971,2.092,2.092,0,0,1-1.4387,2.1986,3.6023,3.6023,0,0,1-3.7415-.6312c-.47-.3873-.9073-.82-1.407-1.1631a3.2547,3.2547,0,0,0-1.1323-.4791c-.532-.1146-.844.1551-.9233.693a3.4555,3.4555,0,0,0-.01.499c0,.718-.0025,1.436.0013,2.154a1.4578,1.4578,0,0,0,1.3549,1.6843,5.2217,5.2217,0,0,0,1.562.0065c.8225-.1045,1.63-.3325,2.4524-.4308a2.0906,2.0906,0,0,1,2.2564,3.0137,3.3424,3.3424,0,0,1-3.1619,2.1748,10.3811,10.3811,0,0,1-3.4649-.3011c-.7716-.2151-1.5665-.3466-2.3513-.5144a2.0447,2.0447,0,0,1-1.7162-1.694,2.559,2.559,0,0,1,1.006-2.9973,1.2853,1.2853,0,0,0,.481-.5543,4.5678,4.5678,0,0,0-.0635-3.3214c-.1007-.265-.5438-.4117-.8453-.5854a5.6779,5.6779,0,0,1-1.0744-.5773,1.3511,1.3511,0,0,1,.2141-2.2036,4.0484,4.0484,0,0,1,1.4859-.4491,12.29,12.29,0,0,1,1.663-.017Z"/><path class="cls-1" d="M287.813,31.2372c-.4226-.0511-.7787-.1148-1.1371-.1333-.7993-.0413-1.6-.05-2.3995-.0923A4.2414,4.2414,0,0,1,283.06,30.86a.9.9,0,0,1-.3734-1.4906,2.3252,2.3252,0,0,1,1.0237-.656,1.9762,1.9762,0,0,0,1.4837-1.8542,50.7207,50.7207,0,0,0,.2968-6.5549c.0622-1.7464-.0073-3.4971.0244-5.2451a1.4583,1.4583,0,0,0-.9718-1.5628,1.7448,1.7448,0,0,1-.2195-.1187,1.2477,1.2477,0,0,1,.295-2.393,2.968,2.968,0,0,1,1.1456-.0414c.9742.2078,1.9354.4795,2.8959.7468a2.5363,2.5363,0,0,1,.7513.34.9073.9073,0,0,1-.1488,1.6936,3.5668,3.5668,0,0,1-1.0426.2445c-1.0283.1291-1.259.3534-1.2733,1.3577-.0416,2.913-.06,5.8265-.1225,8.7391-.0214.9947-.1574,1.9865-.2242,2.9808-.0693,1.0307.1485,1.2345,1.2,1.3362a4.3257,4.3257,0,0,1,1.3542.3378,1.1925,1.1925,0,0,1,.763,1.2664,1.2381,1.2381,0,0,1-1.0154,1.083C288.5272,31.1563,288.14,31.1885,287.813,31.2372Z"/><path class="cls-1" d="M811.839,7.8453c.9095.0617,1.8183.1539,2.7289.1775,1.1743.03,2.3538-.0531,3.5241.0215a21.7609,21.7609,0,0,1,3.7225.4633,7.0492,7.0492,0,0,1,4.7934,3.6236,7.5932,7.5932,0,0,1,.6365,2.0834,8.26,8.26,0,0,1-1.2881,6.0552,5.01,5.01,0,0,1-5.1793,2.18,6.68,6.68,0,0,1-2.8417-1.2531c-.8831-.6929-1.8274-1.31-2.762-1.9345a6.2691,6.2691,0,0,0-2.382-.9627c-.8455-.1535-1.2428.073-1.319.8928a17.9066,17.9066,0,0,0,.29,6.8442c.2946.9961.7408,1.2309,1.6833.7715a4.42,4.42,0,0,1,2.25-.56,2.3646,2.3646,0,0,1,2.3125,2.8873,1.8962,1.8962,0,0,1-1.392,1.55,10.71,10.71,0,0,1-1.8443.338,19.1038,19.1038,0,0,1-2.496.2131,19.87,19.87,0,0,1-2.8017-.2521,1.1963,1.1963,0,0,1-1.0395-1.0421,1.2657,1.2657,0,0,1,.6714-1.313c.2423-.1542.4966-.29.7447-.4351a1.1847,1.1847,0,0,0,.7085-1.5459q-.2033-1.0377-.4135-2.0739a14.2737,14.2737,0,0,1-.0518-4.2145,12.5821,12.5821,0,0,0,.0331-1.567.96.96,0,0,0-.7815-.9545,4.1948,4.1948,0,0,0-.4591-.1041,3.535,3.535,0,0,1-3.0813-3.1155,11.7885,11.7885,0,0,1-.1949-3.0379,3.24,3.24,0,0,1,2.1677-2.9935A9.064,9.064,0,0,1,811.839,7.8453Z"/><path class="cls-1" d="M856.713,30.4169c-.4717,0-.9465.0344-1.4147-.0066a1.994,1.994,0,0,1-1.9327-2.24,2.1412,2.1412,0,0,1,.852-1.3781c.8373-.7405.89-.9527.3958-1.917q-1.1572-2.2563-2.3372-4.5008c-.2155-.4077-.4217-.9551-.97-.8983-.4891.0507-.5742.6056-.7787.9955-.4364.832-.9077,1.6459-1.3723,2.4629-.1505.2645-.3414.5066-.4853.7743-.468.87-.3454,1.2931.4968,1.7753.2164.1239.449.2232.653.3645a3.8119,3.8119,0,0,1,1.7568,2.9662,1.9781,1.9781,0,0,1-1.9212,2.2555,24.3935,24.3935,0,0,1-5.7223-.0031,3.88,3.88,0,0,1-3.3605-2.6338c-.62-1.7735-.1027-3.8139,2.2967-4.208a7.9021,7.9021,0,0,1,2.6421.0642,1.4735,1.4735,0,0,0,1.6593-.797q.54-.8875,1.1243-1.7478a9.556,9.556,0,0,0,1.3178-2.9459c.2382-.8948-.0321-1.232-.9675-1.2707-.6917-.0286-1.3866-.0318-2.0735-.1065a3.438,3.438,0,0,1-1.1894-.3268,1.4143,1.4143,0,0,1-.3528-2.3112,2.1966,2.1966,0,0,1,1.4808-.67,6.229,6.229,0,0,1,.8322-.0032,6.3233,6.3233,0,0,0,2.6862-.4338,5.0192,5.0192,0,0,1,2.6189-.2535,1.8862,1.8862,0,0,1,1.3981,2.5417,2.635,2.635,0,0,1-.6977.7886c-.74.5683-.86.9093-.4529,1.7649.2855.6.6228,1.1754.9306,1.7651q.8466,1.6219,1.6857,3.2478c.14.2706.2647.55.42.8118.6092,1.0229.97,1.1223,2.02.59a3.9342,3.9342,0,0,1,.6862-.2947,1.7151,1.7151,0,0,1,2.2672,1.12,3.3435,3.3435,0,0,1-3.11,4.6662c-.3608.0037-.7216.0005-1.0824.0005Z"/><path class="cls-1" d="M886.147,14.25c.3883.0586.9619.1111,1.5191.2362a7.27,7.27,0,0,0,3.8385-.23,9.8242,9.8242,0,0,1,2.8348-.4833,2.157,2.157,0,0,1,2.0233,3.1,2.2911,2.2911,0,0,1-1.61,1.2279c-1.1521.2237-2.3169.3881-3.4814.5385-.4769.0616-.97-.0119-1.45.0367a.8224.8224,0,0,0-.7962.7367.8347.8347,0,0,0,.7882.8423,7.4521,7.4521,0,0,0,1.2658-.0186c.5423-.0321,1.0841-.1292,1.6245-.1185a3.1149,3.1149,0,0,1,1.14.2394,2.2145,2.2145,0,0,1,1.3391,2.3459,2.083,2.083,0,0,1-1.9979,1.5571,11.84,11.84,0,0,1-2.1469-.2321c-.5042-.0811-.99-.2883-1.4945-.3546-.7508-.0985-1.1641.1938-1.2946.814A1.2136,1.2136,0,0,0,889,26.04a7.0928,7.0928,0,0,0,1.5126.2368c.63.0608,1.2684.0443,1.8938.13A4.0982,4.0982,0,0,1,894.55,27.521a2.3907,2.3907,0,0,1,.8053,1.486,1.8075,1.8075,0,0,1-2.1974,2.1992,5.8553,5.8553,0,0,1-1.4759-.4085,5.9632,5.9632,0,0,0-2.48-.4232,28.655,28.655,0,0,1-3.1614-.1255,3.394,3.394,0,0,1-3.1541-2.7958,1.6182,1.6182,0,0,1,1.2265-2.0154,9.4152,9.4152,0,0,1,1.0748-.1463,3.8644,3.8644,0,0,0,.7944-.1653.85.85,0,0,0,.5613-.8534.7721.7721,0,0,0-.56-.75c-.2295-.0736-.4623-.1376-.69-.2155a1.4222,1.4222,0,0,1-.3081-2.614,4.7783,4.7783,0,0,1,1.0877-.4227c.7089-.2252,1.03-.5393,1.06-1.0807a1.2542,1.2542,0,0,0-.9934-1.2455c-.4279-.148-.8767-.2431-1.2915-.42a1.8183,1.8183,0,0,1-1.1745-1.2831,1.4432,1.4432,0,0,1,.8625-1.7666,2.0434,2.0434,0,0,1,.52-.1576C885.356,14.28,885.66,14.2777,886.147,14.25Z"/><path class="cls-1" d="M869.1642,14.5082c2.3552.18,4.7111.3545,7.0653.5474a7.3132,7.3132,0,0,1,1.1222.224,3.7319,3.7319,0,0,1,2.9107,3.7275,2.6247,2.6247,0,0,1-1.8051,2.7584,4.52,4.52,0,0,1-4.6942-.7919c-.59-.4859-1.1382-1.0292-1.7652-1.4593a4.0857,4.0857,0,0,0-1.4206-.6011c-.6674-.1437-1.0589.1946-1.1584.8695a4.3362,4.3362,0,0,0-.0123.626c-.0006.9008-.0031,1.8017.0016,2.7025a1.8292,1.8292,0,0,0,1.7,2.1132,6.5542,6.5542,0,0,0,1.96.0082c1.0318-.1311,2.0445-.4173,3.0768-.5405,2.638-.315,3.5436,1.99,2.831,3.781a4.1935,4.1935,0,0,1-3.9671,2.7286,13.02,13.02,0,0,1-4.347-.3778c-.9681-.27-1.9655-.4348-2.95-.6454a2.5652,2.5652,0,0,1-2.1532-2.1253c-.33-1.5213-.14-2.8257,1.2621-3.7605a1.6118,1.6118,0,0,0,.6035-.6954,5.7308,5.7308,0,0,0-.08-4.1672c-.1263-.3324-.6823-.5165-1.0606-.7344a7.1133,7.1133,0,0,1-1.3479-.7243,1.6951,1.6951,0,0,1,.2686-2.7647,5.0814,5.0814,0,0,1,1.8642-.5635,15.4361,15.4361,0,0,1,2.0865-.0212Z"/><path class="cls-1" d="M833.8053,31.2372c-.4226-.0511-.7787-.1148-1.137-.1333-.7993-.0413-1.6-.05-2.4-.0923a4.24,4.24,0,0,1-1.2168-.1516.9.9,0,0,1-.3735-1.4906,2.3252,2.3252,0,0,1,1.0237-.656,1.9763,1.9763,0,0,0,1.4838-1.8542,50.7206,50.7206,0,0,0,.2967-6.5549c.0622-1.7464-.0073-3.4971.0244-5.2451a1.4583,1.4583,0,0,0-.9718-1.5628,1.7588,1.7588,0,0,1-.22-.1187,1.2478,1.2478,0,0,1,.2951-2.393,2.9674,2.9674,0,0,1,1.1455-.0414c.9742.2078,1.9354.4795,2.896.7468a2.5357,2.5357,0,0,1,.7512.34.9073.9073,0,0,1-.1487,1.6936,3.5674,3.5674,0,0,1-1.0427.2445c-1.0283.1291-1.259.3534-1.2733,1.3577-.0416,2.913-.06,5.8265-.1225,8.7391-.0214.9947-.1573,1.9865-.2242,2.9808-.0693,1.0307.1485,1.2345,1.2,1.3362a4.3257,4.3257,0,0,1,1.3542.3378,1.1924,1.1924,0,0,1,.763,1.2664,1.2381,1.2381,0,0,1-1.0154,1.083C834.52,31.1563,834.132,31.1885,833.8053,31.2372Z"/><path class="cls-1" d="M1390.2493,15.0059c.1153.9612.2445,2.17.41,3.3746a1.9284,1.9284,0,0,0,1.4754,1.7165c.3719.1065.7272.27,1.0966.3869a3.479,3.479,0,0,1,2.5263,3.3433c.1707,1.95-.6549,2.9489-2.6345,3.1661-.9627.1056-1.9228.2462-2.8881.3149A5.3454,5.3454,0,0,0,1387,28.8516c-.2888.26-.58.518-.8489.7977-2.0933,2.18-5.7335,1.8159-7.5793.6923a4.2348,4.2348,0,0,1-2.0836-3.3267,6.8231,6.8231,0,0,1,.7491-3.9412,4.2986,4.2986,0,0,1,3.0879-2.4167,45.5453,45.5453,0,0,1,5.9427-.5992c.6623-.0372,1.3286-.0652,1.983-.1642.86-.13,1.0745-.432,1.0125-1.3019-.0234-.33-.1134-.655-.1323-.9847-.0745-1.2979-.154-2.5963-.1909-3.8956-.035-1.2329-.3528-1.519-1.59-1.3136-.4644.077-.9247.1784-1.388.2626a9.208,9.208,0,0,1-.9838.157,2.11,2.11,0,0,1-2.2414-.9262,2.7822,2.7822,0,0,1-.0854-2.9947,1.6606,1.6606,0,0,1,1.5767-.8956c.6349.0374,1.2688.0981,1.9016.1634a14.4445,14.4445,0,0,0,5.32-.7264,8.3963,8.3963,0,0,1,1.7-.3533,2.1847,2.1847,0,0,1,2.4268,2.176,2.262,2.262,0,0,1-1.9554,2.5516,15.1214,15.1214,0,0,1-1.9076.0669c-.8968.011-1.1463.1793-1.2893,1.0522C1390.3262,13.529,1390.3181,14.1414,1390.2493,15.0059Z"/><path class="cls-1" d="M1316.7384,15.7785c.1235-1.5141.19-3.0357.3884-4.54a2.2537,2.2537,0,0,1,2.1426-2.0789,5.7446,5.7446,0,0,1,3.2428.49,3.0585,3.0585,0,0,1,1.4677,1.5266,7.5442,7.5442,0,0,1,.6284,3.6485,10.258,10.258,0,0,1-1.3852,5.1493,4.5953,4.5953,0,0,1-2.7976,2.06,10.5952,10.5952,0,0,1-3.7963.1474,13.8636,13.8636,0,0,0-1.74.0171,1.0655,1.0655,0,0,0-1,.8546,1.9306,1.9306,0,0,0-.0716.4077c-.0962,1.134-.1518,1.8954,1.5533,1.8465a8.2018,8.2018,0,0,1,1.8916.2305,1.5587,1.5587,0,0,1,1.3455,1.4813,1.66,1.66,0,0,1-1.194,1.7072,9.5135,9.5135,0,0,1-1.8667.3778,7.8678,7.8678,0,0,0-3.6554,1.25,11.69,11.69,0,0,1-1.0848.614,2.7641,2.7641,0,0,1-1.8674.1912,1.9686,1.9686,0,0,1-1.3551-2.4848,3.8161,3.8161,0,0,1,2.847-2.6384c.2358-.077.4893-.0978.73-.1606a1.34,1.34,0,0,0,1.17-1.3973,11.0975,11.0975,0,0,0,.018-1.33,1.0446,1.0446,0,0,0-.9886-1.1236c-.5127-.11-1.0361-.19-1.5332-.35a6.9923,6.9923,0,0,1-2.7669-1.7964,9.9729,9.9729,0,0,1-2.9676-4.9123,8.8207,8.8207,0,0,1-.1227-3.38,3.0816,3.0816,0,0,1,3.3241-2.6122,1.9355,1.9355,0,0,1,1.536,1.0066,4.876,4.876,0,0,1,.7913,2.6684,14.1893,14.1893,0,0,0,.3594,4.1248,11.9194,11.9194,0,0,0,.637,1.62,3.0747,3.0747,0,0,0,1.84,1.59,5.2632,5.2632,0,0,0,2.7115.1427,1.6585,1.6585,0,0,0,1.534-1.6025c.0631-.9108.1168-1.8223.1747-2.7335Z"/><path class="cls-1" d="M1289.1991,16.1248c-.0943-2.1467-.1594-3.89-.2563-5.6323-.0213-.3816-.1823-.7533-.2335-1.1357A2.7585,2.7585,0,0,0,1287.1,7.11a1.8949,1.8949,0,0,1-1.11-2.2764,2.3589,2.3589,0,0,1,2.1551-1.6725c.166-.0091.3347.0143.499-.0045a2.2185,2.2185,0,0,1,2.2435,3.0715,1.516,1.516,0,0,1-.0808.2358,5.2931,5.2931,0,0,0-.5206,2.9059c.0623,1.2443.104,2.49.1787,3.7334.0585.9758.417,1.3018,1.4031,1.385a29.7475,29.7475,0,0,1,3.0529.3035,3.2074,3.2074,0,0,1,2.9074,3.0512,17.4662,17.4662,0,0,1-.0922,4.63c-.0864.9081-.184,1.8166-.224,2.7272-.047,1.071.2059,1.3418,1.2868,1.5591a4.0738,4.0738,0,0,1,.7969.2169,1.9611,1.9611,0,0,1,1.112,2.4749,2.2671,2.2671,0,0,1-1.8767,1.6915,9.1912,9.1912,0,0,1-5.5759-.8258,4.85,4.85,0,0,1-1.1081-.8617,1.5692,1.5692,0,0,1-.3289-1.8413,1.4605,1.4605,0,0,1,1.4736-.8789,13.2278,13.2278,0,0,0,1.3305-.02c1.0442-.0982,1.4027-.473,1.4992-1.5177.0482-.5229.0923-1.0467.1215-1.571.0923-1.6553.2416-3.3108.2461-4.9666.0044-1.6508-.6547-2.3378-2.3112-2.5838a15.6629,15.6629,0,0,0-2.2349-.1551c-.956-.0038-1.3018.3179-1.4131,1.2618a11.73,11.73,0,0,0-.0676,1.5773,1.09,1.09,0,0,0,.879,1.1567c.3437.1033.7059.143,1.0556.2284a2.2526,2.2526,0,0,1,1.7719,2.6868,2.0608,2.0608,0,0,1-2.2458,1.7837c-1.5653-.143-3.0894.2109-4.6366.1917a2.5671,2.5671,0,0,1-2.5083-1.8182,2.18,2.18,0,0,1,1.4951-2.8752c.4787-.1359.9707-.2249,1.4555-.34a1.4473,1.4473,0,0,0,1.294-1.4025C1289.0748,17.4883,1289.16,16.6074,1289.1991,16.1248Z"/><path class="cls-1" d="M1341.61,25.45c-.1239.8936-.2611,2.006-.436,3.1124a2.8269,2.8269,0,0,1-1.9885,2.2685,5.6,5.6,0,0,1-3.81.1328c-1.7743-.5956-3.5437-1.2136-5.283-1.9034a5.2264,5.2264,0,0,1-3.1128-5.9091,2.59,2.59,0,0,1,2.2988-2.1319c.2025-.0291.4082-.0387.6088-.0765a1.0523,1.0523,0,0,0,1.0255-1.0778c.1261-1.2523.2578-2.5058.32-3.7621a1.3519,1.3519,0,0,0-.8943-1.4584,8.217,8.217,0,0,1-.9477-.38,1.653,1.653,0,0,1-.9944-1.6424,1.7351,1.7351,0,0,1,1.0991-1.5879,3.1926,3.1926,0,0,1,.8854-.23,10.4251,10.4251,0,0,1,3.9577.222,3.7711,3.7711,0,0,1,1.2909.5836,1.529,1.529,0,0,1-.2193,2.7339,5.1385,5.1385,0,0,1-.8475.35,2.1478,2.1478,0,0,0-1.5469,1.744,20.9284,20.9284,0,0,0-.2959,3.0412c-.0181,1.0572.471,1.4195,1.4965,1.2369.5359-.0954,1.0617-.2471,1.5932-.368.3321-.0754.6677-.1357,1-.2115,3.0763-.7019,4.3819,1.29,4.6962,3.4544C1341.5832,24.1287,1341.5694,24.6793,1341.61,25.45Z"/><path class="cls-1" d="M1351.8721,22.2082a5.718,5.718,0,0,0,1.013,3.4459,6.1955,6.1955,0,0,1,.9455,2.4643,2.8064,2.8064,0,0,1-3.1182,3.0792,2.0427,2.0427,0,0,1-1.6655-2.7233,4.6208,4.6208,0,0,1,.7373-1.3772,3.7354,3.7354,0,0,0,.82-2.55c-.0542-.995-.1123-1.9905-.2077-2.982a.82.82,0,0,0-.3284-.604c-.1588-.0676-.4547.0878-.6431.215a8.16,8.16,0,0,0-.5985.57,2.1485,2.1485,0,0,1-2.6189.1454,2.0709,2.0709,0,0,1-.86-2.3171,2.96,2.96,0,0,1,.1479-.5606c.6232-1.3591,1.24-2.7214,1.8964-4.0645a1.9971,1.9971,0,0,1,1.4462-1.1481,1.7478,1.7478,0,0,1,1.7333.5562,3.128,3.128,0,0,1,.826,1.9471c.0216.3316.0065.6653.0141.9979a.977.977,0,0,0,.7288,1,8.6552,8.6552,0,0,0,3.62.1545.7168.7168,0,0,0,.5562-.954c-.0915-.346-.2685-.6686-.3747-1.0117a2.8488,2.8488,0,0,1-.1808-.8848.7211.7211,0,0,1,1.0578-.6483,1.7486,1.7486,0,0,1,.7064.5513,8.4831,8.4831,0,0,1,1.6427,4.7884,2.1108,2.1108,0,0,1-.3456,1.0823,1.0277,1.0277,0,0,1-1.8289-.091.2743.2743,0,0,1-.0391-.0731c-.2487-1.15-1.0834-1.3376-2.0821-1.2925-.5812.0263-1.1648-.0061-1.7469.0075-.8841.0207-1.1791.3007-1.249,1.197C1351.8488,21.4857,1351.8721,21.8479,1351.8721,22.2082Z"/><path class="cls-1" d="M1370.5937,21.6555c-.333,0-.666-.0062-.9988.0013-.9505.0216-1.2091.2394-1.3832,1.19-.11.5987-.1786,1.2051-.298,1.8017-.152.7594-.3308,1.5136-.5085,2.2676-.2619,1.11-.0382,1.4769,1.0562,1.71a7.48,7.48,0,0,1,1.0475.2441,1.1984,1.1984,0,0,1-.1742,2.3273,3.6991,3.6991,0,0,1-1.4668-.0752,7.388,7.388,0,0,0-3.4383-.3157,1.8946,1.8946,0,0,1-.5811-.0043,1.2219,1.2219,0,0,1-.2025-2.4142,4.7046,4.7046,0,0,1,.8163-.152c.9756-.1142,1.2557-.3162,1.4849-1.2545.2691-1.1017.4974-2.2137.7219-3.3256a5.3908,5.3908,0,0,0,.1182-1.151,1.06,1.06,0,0,0-.93-1.1027,5.1132,5.1132,0,0,1-.9759-.1843,4.371,4.371,0,0,1-1.3272-.7945,1.1708,1.1708,0,0,1,.4655-2.0061,4.0321,4.0321,0,0,1,2.3749-.1713,11.0685,11.0685,0,0,0,3.7146-.095,8.7519,8.7519,0,0,1,2.2278.0138c1.078.1487,1.4528.6409,1.5144,1.5511a1.95,1.95,0,0,1-1.4378,1.8173,7.859,7.859,0,0,1-1.1538.1189C1371.0385,21.6683,1370.8156,21.6554,1370.5937,21.6555Z"/><path class="cls-1" d="M1369.2432,16.7912c-.3774-.0544-.704-.111-1.0329-.147-.7945-.0871-1.5939-.1386-2.3842-.2538a9.716,9.716,0,0,1-1.9263-.4113,1.7718,1.7718,0,0,1-1.2555-1.9975,1.9967,1.9967,0,0,1,1.7984-1.7777,4.4707,4.4707,0,0,1,1.4706.1255,9.7745,9.7745,0,0,1,1.6258.6089,11.5409,11.5409,0,0,0,3.064.9875,2.42,2.42,0,0,1,.476.1426,1.186,1.186,0,0,1,.8676,1.0083,1.2518,1.2518,0,0,1-.618,1.1876A3.5056,3.5056,0,0,1,1369.2432,16.7912Z"/><path class="cls-1" d="M996.7828,26.3059c0-.4436.0185-.8881-.0046-1.33-.0291-.5576-.27-.8288-.8231-.8443a10.0229,10.0229,0,0,0-1.7406.0914.9805.9805,0,0,0-.8992.9471c-.04.58-.0128,1.1664-.07,1.7446a13.3061,13.3061,0,0,1-.3212,2.2091,3.8443,3.8443,0,0,1-2.8938,2.7139,3.2862,3.2862,0,0,1-3.4-1.5581,4.3846,4.3846,0,0,1-.5405-2.0678,14.6207,14.6207,0,0,1,.9143-5.3793,20.0011,20.0011,0,0,0,.9271-5.8816,8.6438,8.6438,0,0,1,.209-1.724,2.2092,2.2092,0,0,1,1.9368-1.6946,2.1229,2.1229,0,0,1,2.0508,1.4214,8.5529,8.5529,0,0,1,.4475,2.0952c.1521,1.4861.2216,2.98.3465,4.47.0739.88.45,1.2249,1.33,1.261a4.694,4.694,0,0,0,.9122-.0377c.9659-.15,1.4133-.5208,1.4066-1.7911-.0033-.6078-.0538-1.2159-.0978-1.8228-.0719-.9937-.1712-1.9856-.2305-2.98a21.7717,21.7717,0,0,1-.0885-2.7317A4.1042,4.1042,0,0,1,999.99,9.5209c.4408-.0461.8785-.1592,1.3186-.1646a6.8752,6.8752,0,0,1,1.6356.1185c1.7324.4049,2.3564,1.7062,2.5026,3.315a3.5025,3.5025,0,0,1-1.8617,3.692,29.5262,29.5262,0,0,1-2.6724,1.3362,2.6206,2.6206,0,0,0-1.8365,2.3381,11.5193,11.5193,0,0,0,.0213,2.2162,2.2627,2.2627,0,0,0,1.2559,1.6688,10.0934,10.0934,0,0,1,.9188.5682,3.6819,3.6819,0,0,1,1.3384,4.1346,2.9388,2.9388,0,0,1-2.8629,2.0123,2.519,2.519,0,0,1-2.6044-1.6826,2.9569,2.9569,0,0,1-.2951-.86c-.0768-.6313-.0924-1.27-.1331-1.9057Z"/><path class="cls-1" d="M959.86,14.3623c.1716-1.1463.3233-2.296.5194-3.4381a3.9508,3.9508,0,0,1,3.7029-3.1472,9.6717,9.6717,0,0,1,5.0906.8928c.7315.3307,1.4361.7207,2.1525,1.0847a7.6758,7.6758,0,0,0,6.66.3054,6.5321,6.5321,0,0,1,3.2272-.6157,3.7451,3.7451,0,0,1,3.4908,3.4322,5.3028,5.3028,0,0,1-.45,2.918,2.9353,2.9353,0,0,1-5.0992.6783,9.1541,9.1541,0,0,0-2.069-1.9027,6.7822,6.7822,0,0,0-2.5277-1.0068c-.7927-.1309-1.5817-.2842-2.3752-.41a1.8768,1.8768,0,0,0-.6585.0037.6408.6408,0,0,0-.5511.8564,1.2272,1.2272,0,0,0,.11.3132,14.9434,14.9434,0,0,1,1.2078,5.9783,14.2272,14.2272,0,0,0,1.28,4.9583,4.4467,4.4467,0,0,0,2.8227,2.5328,2.5413,2.5413,0,0,1,1.9488,1.9538,1.7557,1.7557,0,0,1-1.6869,2.1673,6.4428,6.4428,0,0,1-1.53-.2911,2.9281,2.9281,0,0,1-.671-.3267,4.0316,4.0316,0,0,0-3.127-.3586,12.097,12.097,0,0,1-2.3789.3137,3.284,3.284,0,0,1-2.0978-.6877,1.8984,1.8984,0,0,1-.2741-3.006,1.7872,1.7872,0,0,1,1.4728-.4116c.3006.0507.5994.112.9006.1584a2.2043,2.2043,0,0,0,2.6153-2.0244,4.5466,4.5466,0,0,0-.087-1.2342c-.1561-.8432-.4134-1.6709-.5222-2.5187-.13-1.0129-.1386-2.041-.2173-3.0612a8.1209,8.1209,0,0,0-1.3244-3.9748,1.27,1.27,0,0,0-2.2964-.1057,10.4937,10.4937,0,0,0-.71,1.1217c-.29.4722-.5531.9628-.8683,1.4174a3.0433,3.0433,0,0,1-5.5689-1.6338c-.0141-.3045-.0021-.61-.0021-.9155Z"/><path class="cls-1" d="M1057.9113,32.8242a10.6013,10.6013,0,0,0-.71-3.8179,10.6651,10.6651,0,0,1-.7449-3.8882,1.283,1.283,0,0,0-1.4471-1.4395c-1.024-.0152-2.05.0968-3.0735.0674a9.11,9.11,0,0,1-2.1276-.3,4.0194,4.0194,0,0,1-2.8362-3.96,3.8883,3.8883,0,0,1,1.9082-2.97,6.1583,6.1583,0,0,1,5.5346-.9483c1.3592.3789,2.6993.8406,4.0205,1.3381a3.736,3.736,0,0,1,2.338,4.0744,2.8808,2.8808,0,0,1-1.4068,2.0634c-.2116.1315-.4341.2455-.65.3693a1.527,1.527,0,0,0-.8081,1.3584,8.213,8.213,0,0,0,.4909,3.4275,13.2687,13.2687,0,0,1,.9045,5.3709,3.9315,3.9315,0,0,1-2.9174,3.8851,8.1162,8.1162,0,0,1-.8891.209,3.503,3.503,0,0,1-3.852-1.6639c-.8511-1.3174-.9775-1.3651-2.5038-.98-.4829.1219-.9643.2605-1.4547.34a2.368,2.368,0,0,1-2.5546-1.5554,2.3974,2.3974,0,0,1,.91-2.9252,7.5041,7.5041,0,0,1,1.725-.54,2.4766,2.4766,0,0,1,.7451-.0462,5.9362,5.9362,0,0,0,3.8808-.9394,2.2572,2.2572,0,0,1,.7042-.2429,2.0282,2.0282,0,0,1,2.4824.8006,2.2975,2.2975,0,0,1-.256,2.8429,12.0347,12.0347,0,0,1-1.5642,1.2241c-.3956.288-.9373.4607-.8358,1.1046a1.4681,1.4681,0,0,0,1.1041,1.1286,3.0483,3.0483,0,0,0,3.8814-2.5537C1057.9256,33.38,1057.9113,33.1017,1057.9113,32.8242Z"/><path class="cls-1" d="M1031.2955,21.8374c0,.3605-.0282.7236.0055,1.0809a3.0281,3.0281,0,0,0,1.3987,2.17,2.74,2.74,0,0,1,.8912,3.3484,2.6314,2.6314,0,0,1-2.944,1.6427,2.22,2.22,0,0,1-2.0095-2.1021,2.2843,2.2843,0,0,1,.4412-1.6527,4.2533,4.2533,0,0,0,.6841-3.0781c-.0645-.9114-.0277-1.83-.0372-2.7453a4.27,4.27,0,0,0-.0207-.6644c-.0883-.52-.37-.715-.89-.5737-.4254.1157-.83.3076-1.2464.4571a2.9162,2.9162,0,0,1-2.972-.4862,2.24,2.24,0,0,1-.8219-2.6528,3.1438,3.1438,0,0,1,2.4451-2.1418c.5925-.1409,1.1925-.2516,1.7907-.3677a2.717,2.717,0,0,0,1.9611-1.3966,7.231,7.231,0,0,1,.7565-1.0925,2.1237,2.1237,0,0,1,1.3963-.8249,1.4152,1.4152,0,0,1,1.65,1.3516,4.7827,4.7827,0,0,1-.8368,2.9058c-.1965.3335-.4452.636-.6483.9661-.4686.7617-.21,1.3352.6907,1.3548a22.3432,22.3432,0,0,0,2.7327-.1728,3.4892,3.4892,0,0,1,3.8887,2.827,29.9271,29.9271,0,0,1,.33,3.0476c.0409.4962.014.9985.007,1.4979a3.7109,3.7109,0,0,0,1.3587,2.9953c.4616.3984.9159.8063,1.3541,1.23a2.889,2.889,0,0,1,.5116.6506,1.6083,1.6083,0,0,1-1.2309,2.4809,2.3432,2.3432,0,0,1-1.9953-.6416c-.8375-.8071-1.6458-1.649-2.4127-2.5233a2.0448,2.0448,0,0,1-.1755-2.4752,1.1891,1.1891,0,0,1,.1346-.21c1.0422-1.1443,1.0007-2.5206.84-3.9211-.0663-.5766-.1042-1.1607-.2268-1.7258a1.9,1.9,0,0,0-2.0047-1.6373c-1.2454.0191-2.4909.0994-3.7338.1894a.9733.9733,0,0,0-.9472.9866c-.0785.63-.1132,1.2662-.1671,1.9Z"/><path class="cls-1" d="M1064.5651,21.0205q0-.1663,0-.3328c.0007-1.0283-.1636-1.2613-1.1515-1.51a1.9085,1.9085,0,0,1-1.3589-.8583,2.4127,2.4127,0,0,1,1.8848-3.7,3.8382,3.8382,0,0,1,2.1871.3735,6.2291,6.2291,0,0,0,3.3864.5765,10.277,10.277,0,0,1,2.7976.1766,2.7239,2.7239,0,0,1,2.13,3.182,1.7676,1.7676,0,0,1-.9949,1.3515,4.1873,4.1873,0,0,1-3.2307.21c-.8256-.2358-1.6409-.5073-2.4618-.7595a4.1007,4.1007,0,0,0-.6415-.17c-.5305-.0717-.9119.1026-1.0193.62a3.93,3.93,0,0,0-.0314,1.6231,1.3994,1.3994,0,0,0,1.7747,1.0967c.7322-.1387,1.4387-.411,2.17-.5568a14.4743,14.4743,0,0,1,2.6144-.3822,2.9451,2.9451,0,0,1,3.0006,3.0028,4.5626,4.5626,0,0,1-.5724,2.3074c-.5151.9895-.4516,1.2444.3961,1.9982.74.6576.9351,1.265.6055,1.8813a1.605,1.605,0,0,1-1.8833.6955,7.2113,7.2113,0,0,1-1.8324-.7525,6.5579,6.5579,0,0,0-5.1149-.7811c-.2959.0686-.5984.1125-.9.1544a2.1679,2.1679,0,0,1-2.5945-1.6364,2.3421,2.3421,0,0,1,1.4106-2.845,3.6379,3.6379,0,0,1,2.2085-.14,17.8417,17.8417,0,0,1,3.9556,1.24c.0737.0377.154.0624.2312.0935.7015.283,1.4127.46,1.9827-.2213a2.395,2.395,0,0,0,.56-2.5407,1.4968,1.4968,0,0,0-1.4788-1.0256,14.3709,14.3709,0,0,0-2.2876.3226c-.7587.1513-1.4952.4191-2.2558.5545a2.7778,2.7778,0,0,1-3.501-2.9153c-.0016-.1108,0-.2216,0-.3325Z"/><path class="cls-1" d="M1016.99,22.3353c-.3329,0-.666-.0063-.9987.0013-.9505.0216-1.2091.2394-1.3832,1.19-.11.5987-.1786,1.2052-.298,1.8017-.152.7594-.3308,1.5137-.5086,2.2676-.2618,1.11-.0381,1.477,1.0563,1.71a7.4831,7.4831,0,0,1,1.0475.244,1.1984,1.1984,0,0,1-.1743,2.3274,3.7011,3.7011,0,0,1-1.4668-.0752,7.3853,7.3853,0,0,0-3.4383-.3157,1.897,1.897,0,0,1-.581-.0043,1.2219,1.2219,0,0,1-.2026-2.4142,4.7077,4.7077,0,0,1,.8164-.1521c.9756-.1142,1.2556-.3161,1.4849-1.2544.2691-1.1017.4974-2.2138.7219-3.3257a5.3972,5.3972,0,0,0,.1182-1.151,1.06,1.06,0,0,0-.93-1.1026,5.1118,5.1118,0,0,1-.9759-.1844,4.3678,4.3678,0,0,1-1.3272-.7945,1.1708,1.1708,0,0,1,.4655-2.0061,4.0329,4.0329,0,0,1,2.3749-.1713,11.0678,11.0678,0,0,0,3.7145-.0949,8.7527,8.7527,0,0,1,2.2279.0138c1.078.1486,1.4528.6409,1.5144,1.5511a1.95,1.95,0,0,1-1.4379,1.8172,7.829,7.829,0,0,1-1.1537.1189C1017.4353,22.3481,1017.2124,22.3352,1016.99,22.3353Z"/><path class="cls-1" d="M1015.64,17.471c-.3774-.0545-.704-.1111-1.0329-.1471-.7946-.087-1.594-.1386-2.3842-.2538a9.7254,9.7254,0,0,1-1.9264-.4112,1.7718,1.7718,0,0,1-1.2555-1.9975,1.9967,1.9967,0,0,1,1.7985-1.7777,4.47,4.47,0,0,1,1.47.1255,9.7663,9.7663,0,0,1,1.6259.6088,11.5447,11.5447,0,0,0,3.064.9876,2.4217,2.4217,0,0,1,.476.1425,1.1865,1.1865,0,0,1,.8676,1.0083,1.2519,1.2519,0,0,1-.618,1.1877A3.5058,3.5058,0,0,1,1015.64,17.471Z"/><path class="cls-1" d="M374.061,21.1577c0,.3605-.0283.7236.0054,1.0809a3.0278,3.0278,0,0,0,1.3988,2.17,2.74,2.74,0,0,1,.8912,3.3485A2.6316,2.6316,0,0,1,373.4123,29.4a2.22,2.22,0,0,1-2.0094-2.102,2.2842,2.2842,0,0,1,.4412-1.6528,4.2538,4.2538,0,0,0,.6841-3.0781c-.0646-.9114-.0277-1.83-.0372-2.7452a4.2691,4.2691,0,0,0-.0208-.6644c-.0882-.52-.37-.715-.89-.5737-.4254.1157-.83.3075-1.2463.457a2.9162,2.9162,0,0,1-2.9721-.4861,2.24,2.24,0,0,1-.8219-2.6529,3.1441,3.1441,0,0,1,2.4451-2.1418c.5926-.1409,1.1926-.2516,1.7908-.3677a2.7169,2.7169,0,0,0,1.9611-1.3966,7.2215,7.2215,0,0,1,.7565-1.0925,2.1231,2.1231,0,0,1,1.3962-.8248A1.4152,1.4152,0,0,1,376.54,11.43a4.7832,4.7832,0,0,1-.8368,2.9058c-.1966.3336-.4453.6361-.6484.9662-.4686.7616-.21,1.3351.6907,1.3547a22.3419,22.3419,0,0,0,2.7327-.1728,3.4894,3.4894,0,0,1,3.8888,2.827,29.9036,29.9036,0,0,1,.3294,3.0477c.041.4961.0141.9985.007,1.4978a3.711,3.711,0,0,0,1.3587,2.9954c.4616.3983.916.8062,1.3542,1.23a2.8881,2.8881,0,0,1,.5115.6505,1.6084,1.6084,0,0,1-1.2308,2.481,2.3431,2.3431,0,0,1-1.9954-.6417c-.8374-.807-1.6457-1.649-2.4127-2.5233a2.0448,2.0448,0,0,1-.1754-2.4752,1.19,1.19,0,0,1,.1345-.21c1.0422-1.1444,1.0008-2.5207.84-3.9211-.0663-.5767-.1042-1.1607-.2269-1.7258a1.9,1.9,0,0,0-2.0046-1.6374c-1.2455.0192-2.491.0994-3.7339.1895a.9733.9733,0,0,0-.9472.9865c-.0784.63-.1132,1.2663-.1671,1.9Z"/><path class="cls-1" d="M361.362,20.3632c-.3329,0-.666-.0062-.9988.0014-.95.0215-1.209.2393-1.3831,1.19-.11.5987-.1786,1.2052-.298,1.8017-.1521.7594-.3308,1.5136-.5086,2.2676-.2619,1.11-.0381,1.4769,1.0562,1.71a7.47,7.47,0,0,1,1.0476.244,1.1984,1.1984,0,0,1-.1743,2.3273,3.6992,3.6992,0,0,1-1.4668-.0752,7.388,7.388,0,0,0-3.4383-.3157,1.8908,1.8908,0,0,1-.581-.0043,1.2219,1.2219,0,0,1-.2026-2.4142,4.7064,4.7064,0,0,1,.8163-.152c.9757-.1142,1.2557-.3162,1.4849-1.2545.2691-1.1016.4975-2.2137.7219-3.3256a5.3974,5.3974,0,0,0,.1183-1.151,1.06,1.06,0,0,0-.9306-1.1027,5.1044,5.1044,0,0,1-.9758-.1843,4.37,4.37,0,0,1-1.3272-.7945,1.1708,1.1708,0,0,1,.4655-2.0061,4.0321,4.0321,0,0,1,2.3749-.1713,11.07,11.07,0,0,0,3.7145-.0949,8.7473,8.7473,0,0,1,2.2278.0137c1.078.1487,1.4529.6409,1.5144,1.5511a1.95,1.95,0,0,1-1.4378,1.8173,7.859,7.859,0,0,1-1.1537.1189C361.8068,20.3761,361.584,20.3631,361.362,20.3632Z"/><path class="cls-1" d="M360.0116,15.4989c-.3775-.0544-.7041-.111-1.0329-.147-.7946-.0871-1.594-.1386-2.3842-.2538a9.717,9.717,0,0,1-1.9264-.4113,1.7718,1.7718,0,0,1-1.2555-1.9975,1.9968,1.9968,0,0,1,1.7984-1.7777,4.4734,4.4734,0,0,1,1.4706.1255,9.7789,9.7789,0,0,1,1.6259.6089,11.5409,11.5409,0,0,0,3.064.9875,2.422,2.422,0,0,1,.476.1426,1.186,1.186,0,0,1,.8675,1.0083,1.2517,1.2517,0,0,1-.6179,1.1876A3.506,3.506,0,0,1,360.0116,15.4989Z"/><path class="cls-1" d="M456.3593,6.4589c.9642.0654,1.9275.1631,2.8928.1882,1.2449.0323,2.4953-.0564,3.7359.0227a23.0752,23.0752,0,0,1,3.9461.4911,7.4728,7.4728,0,0,1,5.0815,3.8413,8.0547,8.0547,0,0,1,.6747,2.2086,8.7564,8.7564,0,0,1-1.3655,6.4191,5.311,5.311,0,0,1-5.49,2.3109,7.08,7.08,0,0,1-3.0124-1.3284c-.9362-.7345-1.9373-1.3884-2.9279-2.0506a6.6476,6.6476,0,0,0-2.5252-1.0207c-.8963-.1626-1.3174.0775-1.3983.9465a18.9832,18.9832,0,0,0,.3072,7.2554c.3123,1.0559.7854,1.3049,1.7845.8179a4.6838,4.6838,0,0,1,2.3852-.5934,2.5067,2.5067,0,0,1,2.4514,3.0607,2.01,2.01,0,0,1-1.4756,1.6433,11.3441,11.3441,0,0,1-1.9551.3583,20.2525,20.2525,0,0,1-2.646.226,21.0574,21.0574,0,0,1-2.97-.2672,1.2684,1.2684,0,0,1-1.102-1.1048,1.3416,1.3416,0,0,1,.7117-1.3918c.257-.1636.5265-.3072.79-.4613a1.2559,1.2559,0,0,0,.7511-1.6388q-.2154-1.1-.4384-2.1985a15.1366,15.1366,0,0,1-.0549-4.4677,13.3591,13.3591,0,0,0,.0352-1.6611,1.0182,1.0182,0,0,0-.8286-1.0119,4.455,4.455,0,0,0-.4866-.11,3.7471,3.7471,0,0,1-3.2664-3.3027,12.4952,12.4952,0,0,1-.2067-3.22,3.4341,3.4341,0,0,1,2.298-3.1734A9.6079,9.6079,0,0,1,456.3593,6.4589Z"/><path class="cls-1" d="M519.6053,33.9264a10.5991,10.5991,0,0,0-.71-3.8179,10.6624,10.6624,0,0,1-.745-3.8882,1.283,1.283,0,0,0-1.447-1.44c-1.024-.0151-2.05.0968-3.0735.0674a9.1,9.1,0,0,1-2.1277-.3,4.0194,4.0194,0,0,1-2.8362-3.96,3.8887,3.8887,0,0,1,1.9083-2.97,6.1583,6.1583,0,0,1,5.5346-.9482c1.3592.3788,2.6993.8406,4.02,1.338a3.7362,3.7362,0,0,1,2.338,4.0745,2.8807,2.8807,0,0,1-1.4069,2.0633c-.2116.1315-.434.2455-.65.3693a1.5273,1.5273,0,0,0-.8082,1.3585,8.211,8.211,0,0,0,.491,3.4274,13.2692,13.2692,0,0,1,.9045,5.371,3.9314,3.9314,0,0,1-2.9174,3.885,8.1162,8.1162,0,0,1-.8891.209,3.5032,3.5032,0,0,1-3.8521-1.6639c-.851-1.3174-.9774-1.3651-2.5037-.98-.4829.122-.9643.2605-1.4547.34a2.3681,2.3681,0,0,1-2.5547-1.5554,2.3974,2.3974,0,0,1,.91-2.9252,7.5041,7.5041,0,0,1,1.725-.54,2.48,2.48,0,0,1,.7451-.0462,5.9359,5.9359,0,0,0,3.8807-.9394,2.2578,2.2578,0,0,1,.7043-.2429,2.0281,2.0281,0,0,1,2.4823.8006,2.2975,2.2975,0,0,1-.2559,2.8429,12.0357,12.0357,0,0,1-1.5643,1.2241c-.3955.288-.9372.4607-.8357,1.1046a1.4681,1.4681,0,0,0,1.1041,1.1286,3.0483,3.0483,0,0,0,3.8814-2.5537C519.62,34.4824,519.6053,34.204,519.6053,33.9264Z"/><path class="cls-1" d="M565.61,29.4359c-.4718,0-.9466.0344-1.4148-.0066a1.9941,1.9941,0,0,1-1.9327-2.24,2.1416,2.1416,0,0,1,.8521-1.3781c.8372-.7405.89-.9527.3957-1.917q-1.1573-2.2563-2.3372-4.5008c-.2155-.4077-.4216-.9551-.97-.8983-.4891.0507-.5743.6056-.7788.9955-.4364.832-.9076,1.6459-1.3723,2.4629-.15.2645-.3413.5066-.4853.7743-.4679.87-.3454,1.2931.4968,1.7753.2164.1239.4491.2232.653.3645a3.8117,3.8117,0,0,1,1.7568,2.9662,1.9781,1.9781,0,0,1-1.9212,2.2555,24.3935,24.3935,0,0,1-5.7223-.003,3.88,3.88,0,0,1-3.3605-2.6339c-.62-1.7735-.1027-3.8139,2.2967-4.208a7.9021,7.9021,0,0,1,2.6421.0642,1.4735,1.4735,0,0,0,1.6593-.797q.54-.8876,1.1244-1.7478a9.5607,9.5607,0,0,0,1.3178-2.9459c.2381-.8948-.0321-1.232-.9676-1.2707-.6917-.0285-1.3866-.0318-2.0735-.1065a3.44,3.44,0,0,1-1.1894-.3267,1.4144,1.4144,0,0,1-.3528-2.3113,2.1972,2.1972,0,0,1,1.4808-.67,6.229,6.229,0,0,1,.8322-.0032,6.3233,6.3233,0,0,0,2.6862-.4338,5.0192,5.0192,0,0,1,2.6189-.2535,1.8862,1.8862,0,0,1,1.3981,2.5417,2.6336,2.6336,0,0,1-.6977.7886c-.74.5683-.86.9093-.4529,1.7649.2855.6.6228,1.1754.9306,1.7651q.8466,1.622,1.6857,3.2478c.14.2706.2647.55.42.8118.6092,1.0229.97,1.1223,2.02.59a3.9342,3.9342,0,0,1,.6862-.2947,1.715,1.715,0,0,1,2.2672,1.12,3.3435,3.3435,0,0,1-3.11,4.6662c-.3608.0037-.7216,0-1.0824,0Z"/><path class="cls-1" d="M478.1318,18.6237c-.0943-2.1466-.1593-3.89-.2563-5.6323-.0212-.3815-.1823-.7533-.2335-1.1356a2.7586,2.7586,0,0,0-1.6094-2.2474,1.8948,1.8948,0,0,1-1.11-2.2763A2.3589,2.3589,0,0,1,477.0776,5.66c.166-.0092.3347.0143.499-.0045A2.2184,2.2184,0,0,1,479.82,8.7265a1.5274,1.5274,0,0,1-.0807.2359,5.292,5.292,0,0,0-.5207,2.9058c.0623,1.2444.104,2.49.1787,3.7335.0586.9757.417,1.3018,1.4032,1.3849a29.72,29.72,0,0,1,3.0528.3036,3.2074,3.2074,0,0,1,2.9074,3.0512,17.4662,17.4662,0,0,1-.0922,4.63c-.0864.908-.184,1.8165-.224,2.7271-.047,1.071.2059,1.3418,1.2868,1.5591a4.0741,4.0741,0,0,1,.7969.217,1.961,1.961,0,0,1,1.112,2.4748,2.2671,2.2671,0,0,1-1.8766,1.6915,9.1913,9.1913,0,0,1-5.576-.8257,4.85,4.85,0,0,1-1.1081-.8618,1.5692,1.5692,0,0,1-.3289-1.8412,1.46,1.46,0,0,1,1.4737-.8789,13.2559,13.2559,0,0,0,1.33-.02c1.0442-.0982,1.4027-.473,1.4992-1.5177.0483-.523.0923-1.0467.1215-1.571.0924-1.6553.2416-3.3108.2461-4.9666.0045-1.6508-.6547-2.3379-2.3112-2.5839a15.6774,15.6774,0,0,0-2.2349-.1551c-.956-.0037-1.3017.318-1.4131,1.2619a11.7282,11.7282,0,0,0-.0676,1.5772,1.09,1.09,0,0,0,.879,1.1567c.3437.1034.706.143,1.0557.2285a2.2527,2.2527,0,0,1,1.7719,2.6868,2.0609,2.0609,0,0,1-2.2458,1.7837c-1.5654-.143-3.0895.2109-4.6367.1916a2.5672,2.5672,0,0,1-2.5083-1.8182,2.18,2.18,0,0,1,1.4951-2.8751c.4787-.1359.9707-.2249,1.4556-.34a1.4473,1.4473,0,0,0,1.2939-1.4025C478.0075,19.9873,478.093,19.1063,478.1318,18.6237Z"/><path class="cls-1" d="M501.7381,24.6608a6.85,6.85,0,0,0-.7712-.0525c-.7059.0162-1.0457.3394-1.0834.991a.9507.9507,0,0,0,.94,1.1278c.3826.0557.7739.0511,1.1577.1011a1.8963,1.8963,0,0,1,.6321.1771.8636.8636,0,0,1,.2025,1.5,3.3008,3.3008,0,0,1-1.0785.5988c-1.1011.37-2.2169.6983-3.333,1.0221a2.3927,2.3927,0,0,1-1.6323-.0277,1.3786,1.3786,0,0,1-.9439-1.2466,1.3226,1.3226,0,0,1,.792-1.4166c.2491-.1182.5133-.2056.7731-.3a1.3617,1.3617,0,0,0,.9928-1.378,5.9535,5.9535,0,0,0-.0148-.7479,1.0458,1.0458,0,0,0-1.0978-1.02,7.9323,7.9323,0,0,0-2.7043.3594,4.425,4.425,0,0,1-1.9656.1784,2.5884,2.5884,0,0,1-2.3173-3.3363,6.5475,6.5475,0,0,1,.3394-1.1095A23.618,23.618,0,0,1,493.22,15.45a2.1029,2.1029,0,0,1,2.3473-1.0254,1.8891,1.8891,0,0,1,1.4742,1.6057,12.0112,12.0112,0,0,1-.0147,2.9771,14.8737,14.8737,0,0,0-.01,1.5785,1.4014,1.4014,0,0,0,1.4445,1.413c.0553.0041.1108.0048.1662.0068,1.4229.0509,1.8909-.4018,1.926-1.8427.0276-1.1348.092-2.2692.0974-3.404.0063-1.3339,1.279-1.8884,2.4469-1.085a5.92,5.92,0,0,1,2.5467,4.2955,6.86,6.86,0,0,1-.0484,2.148,3.0461,3.0461,0,0,1-3.1355,2.5427C502.2667,24.6622,502.0726,24.6608,501.7381,24.6608Z"/><path class="cls-1" d="M542.925,16.8005c0-1.0767-.007-2.1536.0049-3.23.003-.2735.0774-.5454.0987-.82a.9988.9988,0,0,0-.964-1.2015c-.4116-.054-.8288-.0647-1.2431-.1a3.5619,3.5619,0,0,1-2.5832-1.3305,2.48,2.48,0,0,1-.4992-2.0359,1.4115,1.4115,0,0,1,1.3151-1.19,3.5388,3.5388,0,0,1,1.9362.3525c.5484.2624,1.1121.4974,1.6825.7081a9.7952,9.7952,0,0,0,3.03.4267,2.0258,2.0258,0,0,1,1.7441.7828,1.5713,1.5713,0,0,1-.6073,2.4425,5.7676,5.7676,0,0,1-1.2725.3479c-.8771.1859-1.2861.5657-1.3387,1.4427a11.97,11.97,0,0,0,.21,3.6375c.2955,1.1881.68,1.5018,1.8928,1.5834a6.25,6.25,0,0,1,1.309.1924,2.0525,2.0525,0,0,1,1.5013,1.6216,1.4166,1.4166,0,0,1-.4553,1.43,1.2949,1.2949,0,0,1-1.4777.2053c-.3005-.1344-.563-.3516-.8517-.5154a2.7749,2.7749,0,0,0-.6675-.315.5384.5384,0,0,0-.759.5161,2.8282,2.8282,0,0,0,.0135.8289,15.6152,15.6152,0,0,1,.098,3.8077c-.0111.166-.0214.3323-.0241.4985-.014.8533.1464,1.0774.9451,1.3285.2108.0662.4264.12.6317.2a.9046.9046,0,0,1-.1012,1.7584,1.9009,1.9009,0,0,1-.8958.047c-1.0209-.2507-2.0326-.5413-3.0394-.8447a.8076.8076,0,0,1-.6446-.6891.7076.7076,0,0,1,.5509-.7429,1.8939,1.8939,0,0,0,1.253-1.9607c.034-1.1048-.0312-2.2128-.0614-3.3192-.006-.22-.0483-.4389-.0716-.6585-.1191-1.12-.6671-1.4876-1.77-1.1826-.267.0738-.526.1814-.7961.2383a2.0056,2.0056,0,0,1-1.729-.3658,1.6014,1.6014,0,0,1-.5469-1.92,1.5123,1.5123,0,0,1,1.6825-.921c.3564.0421.7081.1265,1.06.1994C542.62,18.289,543.0473,17.9459,542.925,16.8005Z"/><path class="cls-1" d="M579.375,30.2562c-.4226-.0511-.7786-.1148-1.137-.1333-.7993-.0413-1.6-.05-2.4-.0923a4.2407,4.2407,0,0,1-1.2168-.1516.9.9,0,0,1-.3735-1.4906,2.325,2.325,0,0,1,1.0238-.656,1.9763,1.9763,0,0,0,1.4837-1.8542,50.7028,50.7028,0,0,0,.2967-6.5549c.0622-1.7464-.0073-3.4971.0245-5.2451a1.4585,1.4585,0,0,0-.9719-1.5628,1.7588,1.7588,0,0,1-.22-.1187,1.2478,1.2478,0,0,1,.2951-2.393,2.9674,2.9674,0,0,1,1.1455-.0414c.9742.2078,1.9355.4795,2.896.7468a2.5363,2.5363,0,0,1,.7513.34.9073.9073,0,0,1-.1488,1.6936,3.5675,3.5675,0,0,1-1.0426.2445c-1.0284.1291-1.2591.3534-1.2734,1.3577-.0416,2.913-.06,5.8265-.1224,8.7391-.0215.9947-.1574,1.9865-.2243,2.9808-.0693,1.0307.1485,1.2345,1.2,1.3362a4.327,4.327,0,0,1,1.3543.3378,1.1924,1.1924,0,0,1,.7629,1.2664,1.2381,1.2381,0,0,1-1.0154,1.083C580.0892,30.1753,579.7017,30.2075,579.375,30.2562Z"/><path class="cls-1" d="M532.49,20.6745c-.333,0-.666-.0062-.9988.0013-.95.0216-1.2091.2394-1.3832,1.19-.11.5987-.1786,1.2052-.298,1.8017-.152.7594-.3308,1.5136-.5086,2.2676-.2618,1.11-.0381,1.4769,1.0563,1.71a7.48,7.48,0,0,1,1.0475.2441,1.1984,1.1984,0,0,1-.1742,2.3273,3.6991,3.6991,0,0,1-1.4668-.0752,7.388,7.388,0,0,0-3.4383-.3157,1.8946,1.8946,0,0,1-.5811-.0043,1.2219,1.2219,0,0,1-.2025-2.4142,4.7046,4.7046,0,0,1,.8163-.152c.9756-.1142,1.2557-.3162,1.4849-1.2545.2691-1.1017.4974-2.2137.7219-3.3256a5.3908,5.3908,0,0,0,.1182-1.151,1.06,1.06,0,0,0-.93-1.1027,5.1055,5.1055,0,0,1-.9759-.1843,4.371,4.371,0,0,1-1.3272-.7945,1.1708,1.1708,0,0,1,.4655-2.0061,4.0321,4.0321,0,0,1,2.3749-.1713,11.071,11.071,0,0,0,3.7146-.0949,8.7473,8.7473,0,0,1,2.2278.0137c1.078.1487,1.4528.6409,1.5144,1.5511a1.95,1.95,0,0,1-1.4378,1.8173,7.859,7.859,0,0,1-1.1538.1189C532.9347,20.6874,532.7118,20.6744,532.49,20.6745Z"/><path class="cls-1" d="M531.1394,15.81c-.3774-.0544-.704-.111-1.0329-.147-.7945-.0871-1.5939-.1386-2.3842-.2538a9.716,9.716,0,0,1-1.9263-.4113,1.7719,1.7719,0,0,1-1.2556-1.9975,1.9969,1.9969,0,0,1,1.7985-1.7777,4.4711,4.4711,0,0,1,1.4706.1255,9.7745,9.7745,0,0,1,1.6258.6089,11.5409,11.5409,0,0,0,3.064.9875,2.42,2.42,0,0,1,.476.1426,1.186,1.186,0,0,1,.8676,1.0083,1.2518,1.2518,0,0,1-.618,1.1876A3.5056,3.5056,0,0,1,531.1394,15.81Z"/></svg>