<svg id="Layer_1" data-name="Layer 1" xmlns="http://www.w3.org/2000/svg" width="444.2816" height="444.2816" viewBox="0 0 444.2816 444.2816"><defs><style>.cls-1{fill:#bdbdbd;}.cls-2{fill:#ababab;}</style></defs><title>icons</title><circle class="cls-1" cx="222.1408" cy="222.1408" r="222.1307"/><path class="cls-2" d="M248.8841,159.738c-.1219,8.642-1.4534,17.2307-1.8108,25.8613a12.8218,12.8218,0,0,0,1.67,6.2845,18.6205,18.6205,0,0,0,2.7744,3.69c5.332,5.3055,9.8859,4.9171,15.05,2.8505a239.9242,239.9242,0,0,0,24.2851-11.3617c10.1083-5.4268,19.704-11.7357,31.7144-12.4538,22.5129-1.346,45.3273,17.1393,50.7915,38.6339,7.53,29.6195-20.3848,74.7105-62.5319,75.0205-23.3447.1716-43.5607-7.8317-61.9209-21.2734-2.2689-1.6611-4.6344-3.9-6.7022-5.5287-4.5937-3.6173-10.2109-2.3177-13.9664-.4556a13.0426,13.0426,0,0,0-5.1454,5.4965c-3.9231,8.339-4.42,17.292-4.701,26.32-.3149,10.1216.4426,20.5331-1.679,30.2941-6.4867,29.8432-43.3247,45.3876-70.349,31.156-26.1765-13.785-47.0331-58.923-21.2526-95.0772,13.0244-18.2652,30.56-30.33,50.9072-38.7871,3.7731-1.5683,5.9066-3.7777,7.6386-7.7523a16.9312,16.9312,0,0,0,1.0526-3.751c.991-6.8342-1.1534-9.8112-6.1494-13.9142a188.7959,188.7959,0,0,0-16.9849-12.187c-6.1341-3.9889-12.8648-7.1047-18.7945-11.3556-27.0235-19.3723-25.1023-62.4525,2.8295-80.53,25.0986-16.2442,75.1964-11.807,93.2736,28.7742C245.3036,134.1056,249.067,146.7774,248.8841,159.738Z"/></svg>