<svg id="Layer_1" data-name="Layer 1" xmlns="http://www.w3.org/2000/svg" width="444.2816" height="444.2816" viewBox="0 0 444.2816 444.2816"><defs><style>.cls-1{fill:#bdbdbd;}.cls-2{fill:#adadad;}</style></defs><title>icons</title><circle class="cls-1" cx="222.1408" cy="222.1408" r="222.1307"/><path class="cls-2" d="M154.11,320.8967c-4.913.3632-9.8343.6427-14.7354,1.1259-2.3774.2343-3.3593-.5123-3.5051-2.9652-.4469-7.515-.83-15.0479-1.7122-22.5179a82.3383,82.3383,0,0,0-3.1947-16.0817,69.1443,69.1443,0,0,0-22.102-32.65c-5.5166-4.5054-10.7979-9.2986-16.1993-13.9457-1.5831-1.3619-1.6355-2.6565-.2447-4.2658,5.8221-6.737,11.84-13.3284,17.2837-20.3626A67.8127,67.8127,0,0,0,122.5286,181.52a88.1534,88.1534,0,0,0,1.2832-26.2721c-.4714-5.4634-.7753-10.9413-1.2511-16.4043-.1862-2.1386.6079-3.0462,2.754-3.186,7.42-.4832,14.864-.8163,22.2389-1.7046a84.8277,84.8277,0,0,0,16.6255-3.3169,69.7811,69.7811,0,0,0,30.7392-20.2293c5.1519-5.8394,10.2817-11.7021,15.2633-17.6859,1.654-1.9867,2.8765-2.0771,4.794-.4259,7.4328,6.4,14.7368,12.9832,22.5166,18.9391,7.3447,5.6228,15.8388,9.0483,24.9515,11.0179a83.7548,83.7548,0,0,0,25.7268,1.41c5.3666-.5027,10.7506-.82,16.1277-1.21,3.9128-.2833,3.9852-.2191,4.2875,3.8164.5276,7.0445.769,14.1244,1.6488,21.1243.7492,5.96,1.5822,12.0505,3.519,17.6915a67.2451,67.2451,0,0,0,19.9447,29.8276c5.9807,5.1159,11.8394,10.3751,17.8536,15.4507,1.73,1.46,1.639,2.6376.3157,4.1891-5.7147,6.7-11.5519,13.3044-17.0541,20.1759A65.6437,65.6437,0,0,0,321.981,261.494a75.6144,75.6144,0,0,0-1.6249,24.2879c.5943,6.2913.9644,12.604,1.4208,18.9082.2693,3.72.2159,3.7864-3.41,4.06-7.23.5452-14.4626,1.0467-21.6906,1.6127-19.8661,1.5558-36.0727,10.2061-48.9642,25.287-4.5785,5.3562-9.2449,10.6377-13.79,16.0215-1.5044,1.782-2.5894,2.0121-4.5331.3373-7.9888-6.8836-15.8279-14.0111-24.3431-20.1935A55.74,55.74,0,0,0,176.01,321.0414c-7.2755-.514-14.5817-.5942-21.8742-.8683Z"/></svg>